<svg xmlns="http://www.w3.org/2000/svg" width="184.423" height="88.845" viewBox="0 0 184.423 88.845">
  <g id="custom-coding" transform="translate(0 -59.805)">
    <path id="Path_12" data-name="Path 12" d="M48.229,62.848a5.992,5.992,0,0,0-8.475,0l-38,37.994a5.994,5.994,0,0,0,0,8.476l37.834,37.836a5.993,5.993,0,1,0,8.477-8.474l-33.6-33.6L48.229,71.322A5.992,5.992,0,0,0,48.229,62.848Z" transform="translate(0 -0.259)" fill="#6f6f6f"/>
    <path id="Path_13" data-name="Path 13" d="M216.471,100.683l-37.84-37.838a5.993,5.993,0,0,0-8.474,8.477l33.6,33.6L170,138.677a5.993,5.993,0,0,0,8.475,8.476l38-37.993a5.991,5.991,0,0,0,0-8.476Z" transform="translate(-33.805 -0.258)" fill="#6f6f6f"/>
    <path id="Path_14" data-name="Path 14" d="M139.013,61a5.991,5.991,0,0,0-8.389,1.207L73.1,139.066a5.993,5.993,0,1,0,9.6,7.182L140.219,69.39A5.992,5.992,0,0,0,139.013,61Z" transform="translate(-14.447 0)" fill="#6f6f6f"/>
  </g>
</svg>
