<svg xmlns="http://www.w3.org/2000/svg" width="224.013" height="171.619" viewBox="0 0 224.013 171.619">
  <g id="responsive-design-symbol" transform="translate(0 -46.368)">
    <path id="Path_9" data-name="Path 9" d="M239.012,323.859H214.594a1.6,1.6,0,0,1-1.6-1.6v-5.944a1.606,1.606,0,0,0-1.6-1.6H177.224a1.606,1.606,0,0,0-1.6,1.6v5.944a1.605,1.605,0,0,1-1.6,1.6H155.664a1.606,1.606,0,0,0-1.6,1.6v6.876a1.606,1.606,0,0,0,1.6,1.6h83.347a1.606,1.606,0,0,0,1.6-1.6V325.46A1.605,1.605,0,0,0,239.012,323.859Z" transform="translate(-67.019 -116.734)" fill="#6f6f6f"/>
    <g id="Group_8" data-name="Group 8" transform="translate(0 46.368)">
      <path id="Path_10" data-name="Path 10" d="M234.4,46.368H60.16a11.007,11.007,0,0,0-10.994,11V86.043c0,3.792-.281,4.328,2.262,4.328H55.79c2.135,0,1.7-.536,1.7-4.4V57.364A2.71,2.71,0,0,1,60.16,54.69H234.4a2.71,2.71,0,0,1,2.673,2.674V164.711H112.851s-4.378-.008-4.378,5.653v13.427c0,5.653,4.52,5.653,4.52,5.653H234.4a11.008,11.008,0,0,0,11-10.994V57.364A11.008,11.008,0,0,0,234.4,46.368Zm-87.12,133.583A4.954,4.954,0,1,1,152.235,175,4.954,4.954,0,0,1,147.281,179.951Z" transform="translate(-21.384 -46.368)" fill="#6f6f6f"/>
      <path id="Path_11" data-name="Path 11" d="M70.129,141.633H7.1a7.1,7.1,0,0,0-7.1,7.1v103.6a7.1,7.1,0,0,0,7.1,7.1H70.129a7.105,7.105,0,0,0,7.1-7.1v-103.6A7.1,7.1,0,0,0,70.129,141.633ZM30.837,148.87h15.55a1.345,1.345,0,1,1,0,2.689H30.837a1.345,1.345,0,0,1,0-2.689Zm7.681,105.574a3.672,3.672,0,1,1,3.672-3.672A3.672,3.672,0,0,1,38.518,254.444Zm32.61-10.793a1.708,1.708,0,0,1-1.684,1.722H7.782A1.708,1.708,0,0,1,6.1,243.651v-86.09a1.708,1.708,0,0,1,1.684-1.721H69.444a1.708,1.708,0,0,1,1.684,1.721v86.09Z" transform="translate(0 -87.81)" fill="#6f6f6f"/>
    </g>
  </g>
</svg>
