<svg xmlns="http://www.w3.org/2000/svg" width="427.416" height="447.309" viewBox="0 0 427.416 447.309">
  <g id="Envelope-pana" transform="translate(-155.641 -177.597) rotate(14)" opacity="0.4">
    <g id="freepik--envelope-1--inject-2" transform="translate(281.006 112.533)">
      <path id="Path_18" data-name="Path 18" d="M167.794,223.931l339.893-6.471a5.1,5.1,0,0,1,5.186,4.836l12.007,227.46a5.1,5.1,0,0,1-5.081,5.373L168.016,456a5.1,5.1,0,0,1-5.116-5.1l-.07-221.923A5.1,5.1,0,0,1,167.794,223.931Z" transform="translate(-162.83 -84.836)" fill="#c4c4c4"/>
      <path id="Path_19" data-name="Path 19" d="M162.8,243.292,325.1,107.37a18.671,18.671,0,0,1,23.769-.21L509,236.634" transform="translate(-161.046 -102.993)" fill="#c4c4c4"/>
      <g id="Group_10" data-name="Group 10" transform="translate(46.3 35.952)" opacity="0.3">
        <path id="Path_20" data-name="Path 20" d="M202.47,237.837,323.033,137.9a14.016,14.016,0,0,1,17.66-.152l118.951,95.193" transform="translate(-202.47 -134.694)"/>
      </g>
      <path id="Path_22" data-name="Path 22" d="M178.217,245.537l-1.437-76.143,309.1-3.644,1.577,78.234L336.191,366.661Z" transform="translate(-160.486 -93.524)" fill="#fafafa"/>
    </g>
  </g>
</svg>
