<svg id="レイヤー_1" data-name="レイヤー 1" xmlns="http://www.w3.org/2000/svg" width="285.988" height="54.576" viewBox="0 0 285.988 54.576">
  <g id="Group" transform="translate(68.855 1.214)">
    <text id="Nii" transform="translate(0.29 38.704) rotate(-0.45)" fill="#242424" font-size="44" font-family="MrEavesModOT-Bold, Mr Eaves Mod OT" font-weight="700" letter-spacing="0.04em"><tspan x="0" y="0">Nii</tspan></text>
    <text id="_" data-name="’" transform="translate(55.56 34.828) rotate(-0.45)" fill="#242424" font-size="30" font-family="Ingra-Medium, Ingra" font-weight="500" letter-spacing="-0.08em"><tspan x="0" y="0">’</tspan></text>
    <text id="s_" data-name="s " transform="translate(60.982 37.227) rotate(-0.45)" fill="#242424" font-size="43" font-family="MrEavesModOT-Bold, Mr Eaves Mod OT" font-weight="700" letter-spacing="-0.06em"><tspan x="0" y="0">s </tspan></text>
    <text id="D" transform="translate(83.949 38.047) rotate(-0.45)" fill="#242424" font-size="44" font-family="MrEavesModOT-Bold, Mr Eaves Mod OT" font-weight="700" letter-spacing="0.06em"><tspan x="0" y="0">D</tspan></text>
    <text id="ig" transform="translate(116.33 37.793) rotate(-0.45)" fill="#242424" font-size="44" font-family="MrEavesModOT-Bold, Mr Eaves Mod OT" font-weight="700" letter-spacing="0.04em"><tspan x="0" y="0">ig</tspan></text>
    <text id="i" transform="translate(152.606 37.508) rotate(-0.45)" fill="#242424" font-size="44" font-family="MrEavesModOT-Bold, Mr Eaves Mod OT" font-weight="700" letter-spacing="0.08em"><tspan x="0" y="0">i</tspan></text>
    <text id="t" transform="translate(166.645 37.398) rotate(-0.45)" fill="#242424" font-size="44" font-family="MrEavesModOT-Bold, Mr Eaves Mod OT" font-weight="700" letter-spacing="0.06em"><tspan x="0" y="0">t</tspan></text>
    <text id="al" transform="translate(183.039 37.269) rotate(-0.45)" fill="#242424" font-size="44" font-family="MrEavesModOT-Bold, Mr Eaves Mod OT" font-weight="700" letter-spacing="0.04em"><tspan x="0" y="0">al</tspan></text>
  </g>
  <g id="レイヤー_2" data-name="レイヤー 2">
    <g id="レイヤー_1-2" data-name="レイヤー 1-2">
      <path id="Path_31" data-name="Path 31" d="M9.356,48.3,0,54.576V0L9.356,7.732Z" fill="#242424"/>
      <path id="Path_32" data-name="Path 32" d="M197.12,48.3l9.356,6.274V0L197.12,7.732Z" transform="translate(-154.608)" fill="#242424"/>
      <path id="Path_33" data-name="Path 33" d="M86.062,63.935v6.418L60.13,51.838V45.42Z" transform="translate(-47.162 -35.624)" fill="#242424"/>
      <path id="Path_34" data-name="Path 34" d="M86.062,117.795v6.42L60.13,105.7V99.28Z" transform="translate(-47.162 -77.869)" fill="#242424"/>
    </g>
  </g>
</svg>
