<svg id="レイヤー_1" data-name="レイヤー 1" xmlns="http://www.w3.org/2000/svg" viewBox="0 0 951.62 169.55"><defs><style>.cls-1{font-size:140.7px;fill:#060001;font-family:MrEavesModOT-Heavy, Mr Eaves Mod OT;font-weight:800;}.cls-2{letter-spacing:0.04em;}.cls-3{font-size:100.5px;font-family:Ingra-Medium, Ingra;font-weight:500;letter-spacing:-0.08em;}.cls-4{letter-spacing:-0.06em;}.cls-5{letter-spacing:0.06em;}.cls-6{letter-spacing:0.08em;}.cls-7{letter-spacing:0.06em;}</style></defs><g id="レイヤー_2" data-name="レイヤー 2"><g id="レイヤー_1-2" data-name="レイヤー 1-2"><polygon points="29.06 150.06 0 169.55 0 0 29.06 24.02 29.06 150.06"/><polygon points="132.07 150.06 161.13 169.55 161.13 0 132.07 24.02 132.07 150.06"/><polygon points="120.84 87.95 120.84 107.89 40.29 50.37 40.29 30.43 120.84 87.95"/><polygon points="120.84 124.03 120.84 143.98 40.29 86.46 40.29 66.51 120.84 124.03"/></g></g><text class="cls-1" transform="translate(214.73 121.66)"><tspan class="cls-2">Ni</tspan><tspan x="141.54" y="0">e</tspan><tspan class="cls-3" x="202.6" y="-8.19">’</tspan><tspan class="cls-4" x="219.38" y="0">s</tspan><tspan class="cls-2" x="263.42" y="0"> </tspan><tspan class="cls-5" x="293.38" y="0">D</tspan><tspan class="cls-2" x="397.92" y="0">ig</tspan><tspan class="cls-6" x="516.53" y="0">i</tspan><tspan class="cls-7" x="563.94" y="0">t</tspan><tspan class="cls-2" x="617.55" y="0">al</tspan></text></svg>