<svg xmlns="http://www.w3.org/2000/svg" width="32.867" height="37" viewBox="0 0 32.867 37">
  <g id="white_logo_symbol" data-name="white/logo_symbol" transform="translate(-116.5 -106)">
    <path id="Shape" d="M129.074,118.536v-2.83a2.787,2.787,0,0,1,.106-.952,1.879,1.879,0,0,1,3.555,0,2.78,2.78,0,0,1,.106.952v4.364a3.6,3.6,0,0,1-.053.767,1.935,1.935,0,0,1-1.406,1.4,3.647,3.647,0,0,1-.769.053h-4.377a2.805,2.805,0,0,1-.955-.106,1.87,1.87,0,0,1,0-3.544,2.805,2.805,0,0,1,.955-.106Zm15.6,19.783H121.2V117.7a.917.917,0,0,1,.279-.674l6.088-6.07a.923.923,0,0,1,.677-.278h16.433Zm2.666-32.293a4.984,4.984,0,0,0-.584-.026H127.615c-.212,0-.424.013-.57.026a3.7,3.7,0,0,0-2.281,1.111l-7.123,7.1a3.683,3.683,0,0,0-1.114,2.275c-.013.145-.027.357-.027.568v23.314a4.869,4.869,0,0,0,.027.582,2.359,2.359,0,0,0,2,2,4.916,4.916,0,0,0,.584.027h27.641a4.914,4.914,0,0,0,.584-.027,2.36,2.36,0,0,0,2-2,4.992,4.992,0,0,0,.026-.582v-31.79a4.992,4.992,0,0,0-.026-.582A2.36,2.36,0,0,0,147.338,106.026Z" fill="#fff" fill-rule="evenodd"/>
  </g>
</svg>
