<svg xmlns="http://www.w3.org/2000/svg" width="197.502" height="190.785" viewBox="0 0 197.502 190.785">
  <path id="XMLID_257_" d="M75.211,130.285H72.6l1.848-1.848a12.024,12.024,0,0,0,0-16.98l-.045-.044a12.021,12.021,0,0,0-16.937.043L55.615,113.3v-2.613a12.008,12.008,0,0,0-24.015,0V113.3l-1.848-1.848a12.008,12.008,0,0,0-16.981,16.982l1.847,1.848H12.006a12.007,12.007,0,0,0,0,24.014H14.62l-1.848,1.848a12.022,12.022,0,0,0,0,16.98l.053.052a12.023,12.023,0,0,0,16.929-.052l1.847-1.847v2.613a12.007,12.007,0,0,0,24.015,0v-2.613l1.848,1.848a12.008,12.008,0,0,0,16.981-16.981L72.6,154.3H75.21a12.007,12.007,0,0,0,0-24.015Zm0,16.149H68.18a3.933,3.933,0,0,0-3.737,2.708,21.782,21.782,0,0,1-1.26,3.04,3.933,3.933,0,0,0,.728,4.558l4.972,4.971a4.142,4.142,0,1,1-5.858,5.857L58.054,162.6a3.932,3.932,0,0,0-4.556-.728,21.861,21.861,0,0,1-3.041,1.26,3.933,3.933,0,0,0-2.707,3.737v7.03a4.142,4.142,0,0,1-8.284,0v-7.031a3.933,3.933,0,0,0-2.705-3.737,21.856,21.856,0,0,1-3.042-1.261,3.933,3.933,0,0,0-4.556.728l-4.971,4.971a4.147,4.147,0,0,1-5.858,0l-.03-.029a4.147,4.147,0,0,1,.029-5.828l4.972-4.972a3.933,3.933,0,0,0,.727-4.559,21.878,21.878,0,0,1-1.26-3.04,3.933,3.933,0,0,0-3.736-2.7h-7.03a4.142,4.142,0,1,1,0-8.283h7.03a3.933,3.933,0,0,0,3.736-2.7,21.951,21.951,0,0,1,1.262-3.043,3.934,3.934,0,0,0-.728-4.557l-4.971-4.972a4.142,4.142,0,1,1,5.856-5.858l4.972,4.972a3.932,3.932,0,0,0,4.558.728,21.88,21.88,0,0,1,3.041-1.26,3.933,3.933,0,0,0,2.7-3.736v-7.031a4.142,4.142,0,0,1,8.283,0v7.03a3.933,3.933,0,0,0,2.7,3.736,21.9,21.9,0,0,1,3.041,1.261,3.933,3.933,0,0,0,4.557-.728l4.972-4.972a4.147,4.147,0,0,1,5.857,0l.025.025a4.148,4.148,0,0,1-.024,5.833l-4.972,4.972a3.934,3.934,0,0,0-.728,4.558,21.889,21.889,0,0,1,1.261,3.041,3.933,3.933,0,0,0,3.736,2.7h7.031a4.142,4.142,0,0,1,0,8.283Zm89.506-37.424a3.933,3.933,0,0,1-3.933-3.933V59.9a3.271,3.271,0,0,0-3.267-3.267h-7.2a3.933,3.933,0,1,1,0-7.866h7.2A11.145,11.145,0,0,1,168.65,59.9v45.174A3.933,3.933,0,0,1,164.717,109.01ZM43.609,129.293a13,13,0,1,0,13,13A13.015,13.015,0,0,0,43.609,129.293Zm0,18.134a5.134,5.134,0,1,1,5.134-5.134A5.14,5.14,0,0,1,43.609,147.427Zm86.6-139.741H105.242a3.933,3.933,0,0,0-3.933,3.933V177.1a3.933,3.933,0,0,0,3.933,3.933h24.969a3.933,3.933,0,0,0,3.933-3.933V11.619A3.933,3.933,0,0,0,130.211,7.686Zm-3.933,165.481h-17.1V153.452h5.3a3.933,3.933,0,0,0,0-7.866h-5.3V125.872h5.3a3.933,3.933,0,0,0,0-7.866h-5.3V98.292h5.3a3.933,3.933,0,0,0,0-7.866h-5.3V70.712h5.3a3.933,3.933,0,0,0,0-7.866h-5.3V43.132h5.3a3.933,3.933,0,0,0,0-7.866h-5.3V15.552h17.1ZM197.5,23.65V165.068A3.933,3.933,0,0,1,193.569,169H170.783a3.933,3.933,0,1,1,0-7.866h18.853V27.583H148.508a3.933,3.933,0,1,1,0-7.866h45.061A3.933,3.933,0,0,1,197.5,23.65ZM154.249,193.841v.7a3.933,3.933,0,1,1-7.866,0v-.7a3.933,3.933,0,1,1,7.866,0Zm0-126.774V181.1a3.933,3.933,0,1,1-7.866,0V67.067a3.933,3.933,0,1,1,7.866,0ZM88.2,19.717s-34.919,0-35,.006a3.917,3.917,0,0,0-2.308.9l0,0-.006,0-.005,0,0,0-.007.007h0c-.083.07-35.444,35.425-35.444,35.425a3.922,3.922,0,0,0-1.153,2.624c0,.063,0,33,0,33a3.933,3.933,0,0,0,7.866,0V62.788H53.408a3.933,3.933,0,0,0,3.933-3.933V27.583H88.2a3.933,3.933,0,1,0,0-7.866ZM49.476,54.923H27.7L49.476,33.144Z" transform="translate(0 -7.686)" fill="#6f6f6f"/>
</svg>
