<svg xmlns="http://www.w3.org/2000/svg" width="475.359" height="284.923" viewBox="0 0 475.359 284.923">
  <g id="Dashboard-pana_1_" data-name="Dashboard-pana (1)" transform="translate(-54.72 -66.689)" opacity="0.299">
    <g id="freepik--background-complete--inject-2" transform="translate(54.72 68.954)">
      <rect id="Rectangle_77" data-name="Rectangle 77" width="110.074" height="50.766" transform="translate(0 199.967)" fill="#f5f5f5"/>
      <path id="Path_231" data-name="Path 231" d="M163.175,398.319H58.24v-45.7H163.175ZM58.921,397.6H162.487V353.3H58.921Z" transform="translate(-55.717 -149.98)" fill="#e0e0e0"/>
      <rect id="Rectangle_78" data-name="Rectangle 78" width="26.888" height="50.766" transform="translate(110.074 199.967)" fill="#e0e0e0"/>
      <path id="Path_232" data-name="Path 232" d="M58.656,372.242H162.911a.136.136,0,1,0,0-.272H58.656a.136.136,0,0,0,0,.272Z" transform="translate(-55.797 -155.463)" fill="#e0e0e0"/>
      <path id="Path_233" data-name="Path 233" d="M131.737,366.664a114.943,114.943,0,0,0,0-13.788.143.143,0,0,0-.279,0,113.459,113.459,0,0,0,0,13.788.107.107,0,0,0,.208,0Z" transform="translate(-76.406 -150.021)" fill="#e0e0e0"/>
      <path id="Path_234" data-name="Path 234" d="M169.946,361.973a1.433,1.433,0,1,1-1.433-1.433A1.433,1.433,0,0,1,169.946,361.973Z" transform="translate(-86.56 -152.224)" fill="#e0e0e0"/>
      <path id="Path_235" data-name="Path 235" d="M93.606,361.973a1.433,1.433,0,1,1-1.433-1.433A1.433,1.433,0,0,1,93.606,361.973Z" transform="translate(-64.927 -152.224)" fill="#e0e0e0"/>
      <path id="Path_236" data-name="Path 236" d="M132.3,383.933a1.433,1.433,0,1,1-1.433-1.433A1.433,1.433,0,0,1,132.3,383.933Z" transform="translate(-75.891 -158.447)" fill="#e0e0e0"/>
      <path id="Path_237" data-name="Path 237" d="M70.848,419.73,65.18,451.6h3.189L78.817,419.73Z" transform="translate(-57.684 -168.997)" fill="#e0e0e0"/>
      <path id="Path_238" data-name="Path 238" d="M194.309,419.73l4.737,31.926h-3.189L186.34,419.73Z" transform="translate(-92.018 -168.997)" fill="#e0e0e0"/>
      <path id="Path_239" data-name="Path 239" d="M224,419.73l5.368,31.926h-3.182L216.03,419.73Z" transform="translate(-100.431 -168.997)" fill="#e0e0e0"/>
      <path id="Path_240" data-name="Path 240" d="M132.166,403.983a1.433,1.433,0,1,1-1.433-1.433A1.433,1.433,0,0,1,132.166,403.983Z" transform="translate(-75.854 -164.129)" fill="#e0e0e0"/>
      <path id="Path_241" data-name="Path 241" d="M58.666,394.179H162.92a.143.143,0,0,0,0-.279H58.666a.143.143,0,0,0,0,.28Z" transform="translate(-55.807 -161.678)" fill="#e0e0e0"/>
      <rect id="Rectangle_79" data-name="Rectangle 79" width="6.772" height="33.28" transform="matrix(0.005, 1, -1, 0.005, 76.811, 175.949)" fill="#e0e0e0"/>
      <rect id="Rectangle_80" data-name="Rectangle 80" width="10.527" height="37.092" transform="matrix(0.005, 1, -1, 0.005, 80.79, 189.284)" fill="#f5f5f5"/>
      <path id="Path_242" data-name="Path 242" d="M157.49,344.427a77.419,77.419,0,0,1,0-10.527,77.4,77.4,0,0,1,0,10.527Z" transform="translate(-83.785 -144.675)" fill="#e0e0e0"/>
      <path id="Path_243" data-name="Path 243" d="M159.67,344.427a77.406,77.406,0,0,1,0-10.527,77.425,77.425,0,0,1,0,10.527Z" transform="translate(-84.403 -144.675)" fill="#e0e0e0"/>
      <path id="Path_244" data-name="Path 244" d="M123.49,344.427a77.412,77.412,0,0,1,0-10.527,77.412,77.412,0,0,1,0,10.527Z" transform="translate(-74.151 -144.675)" fill="#e0e0e0"/>
      <path id="Path_245" data-name="Path 245" d="M125.661,344.427a77.409,77.409,0,0,1,0-10.527,74.452,74.452,0,0,1,0,10.527Z" transform="translate(-74.766 -144.675)" fill="#e0e0e0"/>
      <path id="Path_246" data-name="Path 246" d="M130.49,341.409c0-.1,3.741-.179,8.356-.179s8.363.079,8.363.179-3.748.186-8.363.186S130.49,341.509,130.49,341.409Z" transform="translate(-76.191 -146.752)" fill="#e0e0e0"/>
      <rect id="Rectangle_81" data-name="Rectangle 81" width="6.772" height="45.778" transform="matrix(0.005, 1, -1, 0.005, 94.745, 182.451)" fill="#ebebeb"/>
      <path id="Path_247" data-name="Path 247" d="M176.956,331.006a2.193,2.193,0,1,1,2.15-2.186,2.15,2.15,0,0,1-2.15,2.186Z" transform="translate(-88.725 -142.612)" fill="#e0e0e0"/>
      <rect id="Rectangle_82" data-name="Rectangle 82" width="1.354" height="30.643" transform="translate(82.276 185.527) rotate(90)" fill="#e0e0e0"/>
      <rect id="Rectangle_83" data-name="Rectangle 83" width="6.471" height="32.184" transform="matrix(1, -0.005, 0.005, 1, 435.294, 12.037)" fill="#e0e0e0"/>
      <rect id="Rectangle_84" data-name="Rectangle 84" width="16.748" height="17.765" transform="matrix(1, -0.005, 0.005, 1, 379.262, 12.175)" fill="#ebebeb"/>
      <rect id="Rectangle_85" data-name="Rectangle 85" width="16.748" height="17.765" transform="matrix(1, -0.005, 0.005, 1, 395.937, 12.078)" fill="#f5f5f5"/>
      <path id="Path_248" data-name="Path 248" d="M583.951,93.509q16.7.136,33.423-.158a.179.179,0,0,0,0-.351q-16.7-.1-33.423.2a.158.158,0,0,0,0,.308Z" transform="translate(-204.656 -76.403)" fill="#e0e0e0"/>
      <rect id="Rectangle_86" data-name="Rectangle 86" width="30.428" height="14.476" transform="matrix(1, -0.005, 0.005, 1, 368.822, 29.725)" fill="#ebebeb"/>
      <rect id="Rectangle_87" data-name="Rectangle 87" width="30.428" height="14.476" transform="matrix(1, -0.005, 0.005, 1, 399.106, 29.554)" fill="#f5f5f5"/>
      <path id="Path_249" data-name="Path 249" d="M569.348,116.72c20.216.229,40.5,0,60.712-.3a.179.179,0,0,0,0-.351c-20.216-.107-40.5-.093-60.72.351a.15.15,0,1,0,0,.3Z" transform="translate(-200.508 -82.931)" fill="#e0e0e0"/>
      <rect id="Rectangle_88" data-name="Rectangle 88" width="117.899" height="5.188" transform="translate(357.46 44.223)" fill="#e0e0e0"/>
      <rect id="Rectangle_89" data-name="Rectangle 89" width="4.787" height="17.701" transform="translate(376.758 46.717)" fill="#e0e0e0"/>
      <rect id="Rectangle_90" data-name="Rectangle 90" width="4.787" height="17.701" transform="translate(448.206 46.717)" fill="#e0e0e0"/>
      <rect id="Rectangle_91" data-name="Rectangle 91" width="6.471" height="44.266" transform="matrix(1, -0.005, 0.005, 1, 441.607, 0.035)" fill="#ebebeb"/>
      <rect id="Rectangle_92" data-name="Rectangle 92" width="10.047" height="35.867" transform="matrix(1, -0.005, 0.005, 1, 448.129, 8.298)" fill="#f5f5f5"/>
      <path id="Path_250" data-name="Path 250" d="M690.033,90.932a70.625,70.625,0,0,1-10.033,0A73.559,73.559,0,0,1,690.033,90.932Z" transform="translate(-231.909 -75.775)" fill="#e0e0e0"/>
      <path id="Path_251" data-name="Path 251" d="M690.033,88.852a73.555,73.555,0,0,1-10.033,0,73.559,73.559,0,0,1,10.033,0Z" transform="translate(-231.909 -75.186)" fill="#e0e0e0"/>
      <path id="Path_252" data-name="Path 252" d="M690.033,123.832a70.619,70.619,0,0,1-10.033,0A73.556,73.556,0,0,1,690.033,123.832Z" transform="translate(-231.909 -85.099)" fill="#e0e0e0"/>
      <path id="Path_253" data-name="Path 253" d="M690.033,121.732a73.558,73.558,0,0,1-10.033,0,73.56,73.56,0,0,1,10.033,0Z" transform="translate(-231.909 -84.503)" fill="#e0e0e0"/>
      <path id="Path_254" data-name="Path 254" d="M687.122,110.82c-.093,0-.172-3.583-.172-8.076s.079-8.084.172-8.084.172,3.583.172,8.084S687.215,110.82,687.122,110.82Z" transform="translate(-233.878 -76.88)" fill="#e0e0e0"/>
      <rect id="Rectangle_93" data-name="Rectangle 93" width="10.936" height="27.074" transform="translate(458.217 17.07)" fill="#ebebeb"/>
      <path id="Path_255" data-name="Path 255" d="M676.446,79.693a1.856,1.856,0,1,1-.544-1.32A1.863,1.863,0,0,1,676.446,79.693Z" transform="translate(-229.846 -72.111)" fill="#e0e0e0"/>
      <rect id="Rectangle_94" data-name="Rectangle 94" width="1.147" height="26.329" transform="translate(444.164 12.692)" fill="#e0e0e0"/>
      <path id="Path_256" data-name="Path 256" d="M664.673,266.083s-7.46-4.027-14.54,13.616-9.467,27.633-9.467,27.633-1.956,3.734-4.586,1.641-6.543-8.342-10.556-6.794c-4.171,1.605-5.153,6.5-3.7,13.437s4.042,22.258,4.3,23.649-.38,3.454-2.4,2.315-14.06-12.355-19.048-6.321,2.214,24.7,2.96,26.759.416,2.988-.537,3.583-4.644-3.54-8.2-6.586-8.22-5.969-10.8-2.243-2.221,18.181,13.544,40.3l7.983,9.775,12.541-1.827c26.594-5.54,36.677-15.916,37.307-20.4s-4.773-5.5-9.452-5.683-10.212.373-10.5-.717.108-2.007,2.05-3.01,19.9-9.832,20.338-17.643-16.052-7.775-18.324-8.313-1.283-2.48-.194-3.325,13.415-10.348,19.184-14.461,8.37-8.377,6.407-12.383c-1.906-3.863-9.015-1.928-12.369-2.15s-2.25-4.3-2.25-4.3,5.016-8.965,11.8-26.709-1.67-19.865-1.67-19.865" transform="translate(-205.524 -125.345)" fill="#ebebeb"/>
      <path id="Path_257" data-name="Path 257" d="M619.13,410.616c5.016-13.014,12.09-30.929,19.972-50.7s15.006-37.659,20.065-50.644l6.005-15.386c.717-1.8,1.254-3.2,1.641-4.178.186-.466.33-.824.437-1.082s.158-.366.158-.366a1,1,0,0,1-.122.38c-.122.251-.222.631-.394,1.1l-1.562,4.214c-1.362,3.655-3.375,8.929-5.884,15.429-5.016,13.014-12.089,30.937-19.972,50.694s-15.006,37.673-20.065,50.658" transform="translate(-214.66 -131.742)" fill="#e0e0e0"/>
      <path id="Path_258" data-name="Path 258" d="M647.93,329.08a3.371,3.371,0,0,1,.4.817c.237.537.552,1.326.925,2.308.752,1.956,1.72,4.687,2.738,7.718s1.863,5.69,2.551,7.775l.781,2.35a3.773,3.773,0,0,1,.251.882,3.732,3.732,0,0,1-.409-.817c-.229-.545-.545-1.333-.91-2.315-.717-1.964-1.67-4.708-2.68-7.74s-1.906-5.668-2.609-7.754c-.308-.917-.573-1.706-.8-2.351A3.927,3.927,0,0,1,647.93,329.08Z" transform="translate(-222.821 -143.309)" fill="#e0e0e0"/>
      <path id="Path_259" data-name="Path 259" d="M660.24,355.92c-.043-.107,5.5-2.358,12.369-5.016s12.484-4.723,12.527-4.615-5.489,2.358-12.369,5.016S660.283,356.034,660.24,355.92Z" transform="translate(-226.309 -148.184)" fill="#e0e0e0"/>
      <path id="Path_260" data-name="Path 260" d="M641.43,400.148a3.882,3.882,0,0,1,.924-.136l2.523-.222c2.15-.186,5.067-.459,8.3-.874s6.149-.881,8.256-1.233l2.5-.416a3.667,3.667,0,0,1,.924-.108,4.154,4.154,0,0,1-.9.272c-.581.143-1.433.337-2.472.552-2.1.43-5.016.946-8.256,1.362s-6.2.638-8.334.752c-1.068.05-1.935.079-2.537.086a3.881,3.881,0,0,1-.932-.036Z" transform="translate(-220.979 -162.601)" fill="#e0e0e0"/>
      <path id="Path_261" data-name="Path 261" d="M624.2,376.05a3.206,3.206,0,0,1,.559.652c.344.437.817,1.082,1.433,1.878,1.161,1.6,2.752,3.82,4.479,6.285s3.275,4.723,4.379,6.364c.552.824.989,1.49,1.29,1.956a3.4,3.4,0,0,1,.423.753,3.343,3.343,0,0,1-.566-.652c-.337-.444-.81-1.082-1.4-1.878-1.168-1.6-2.752-3.82-4.479-6.292s-3.282-4.722-4.378-6.364c-.552-.817-1-1.483-1.29-1.949A3.816,3.816,0,0,1,624.2,376.05Z" transform="translate(-216.097 -156.619)" fill="#e0e0e0"/>
      <path id="Path_262" data-name="Path 262" d="M602.93,410.66a4.792,4.792,0,0,1,.717.846l1.8,2.4c1.5,2.035,3.583,4.866,5.812,8.012s4.3,6.005,5.733,8.091l1.691,2.479a4.783,4.783,0,0,1,.566.946,6.273,6.273,0,0,1-.716-.846l-1.8-2.4c-1.5-2.042-3.583-4.873-5.8-8.019s-4.264-6.005-5.733-8.084L603.5,411.62a6.275,6.275,0,0,1-.573-.96Z" transform="translate(-210.069 -166.427)" fill="#e0e0e0"/>
      <path id="Path_263" data-name="Path 263" d="M625.32,439.712a6.916,6.916,0,0,1,1.168-.193l3.189-.394c2.687-.337,6.407-.817,10.491-1.433s7.775-1.3,10.441-1.8l3.153-.588a6.065,6.065,0,0,1,1.175-.165,6.779,6.779,0,0,1-1.14.33c-.717.186-1.806.437-3.132.717-2.651.573-6.335,1.29-10.434,1.928s-7.826,1.068-10.527,1.326c-1.347.122-2.444.215-3.2.258A5.949,5.949,0,0,1,625.32,439.712Z" transform="translate(-216.414 -173.364)" fill="#e0e0e0"/>
    </g>
    <g id="freepik--Dasboard--inject-2" transform="translate(111.299 66.689)">
      <rect id="Rectangle_95" data-name="Rectangle 95" width="361.867" height="255.29" rx="8.69" transform="translate(0.178 0.208)" fill="#fafafa"/>
      <path id="Path_264" data-name="Path 264" d="M594.379,293.75H529.954a5.181,5.181,0,0,1-5.174-5.174V153.134a5.181,5.181,0,0,1,5.174-5.174h64.425a5.181,5.181,0,0,1,5.174,5.174V288.576A5.181,5.181,0,0,1,594.379,293.75Zm-64.425-145.1a4.464,4.464,0,0,0-4.457,4.457V288.547a4.464,4.464,0,0,0,4.457,4.486h64.425a4.465,4.465,0,0,0,4.457-4.457V153.134a4.465,4.465,0,0,0-4.457-4.457Z" transform="translate(-244.502 -89.719)" fill="#e0e0e0"/>
      <rect id="Rectangle_96" data-name="Rectangle 96" width="33.61" height="255.233" rx="9.65" transform="translate(0.035 0.466)" fill="#c1c1c1"/>
      <path id="Path_265" data-name="Path 265" d="M167.108,220.819h-25.8a2,2,0,0,0-2,2.007v20.366a2,2,0,0,0,2,2.007h27.948a2.007,2.007,0,0,0,1.992-2.214l2.515-22.294Z" transform="translate(-135.269 -110.329)" fill="#fafafa"/>
      <path id="Path_266" data-name="Path 266" d="M575.73,98.408l.179-.107a1.433,1.433,0,0,0,.416-.38,3.44,3.44,0,0,0,.573-2,6.449,6.449,0,0,1,.272-1.5,2.021,2.021,0,0,1,3.167-1.1,2.981,2.981,0,0,1,.939,1.913,8.438,8.438,0,0,1,.086.946,2.15,2.15,0,0,0,.1.824,3.137,3.137,0,0,0,.967,1.261l.387.315h-.494c-1.978,0-3.691-.086-4.837-.122l-1.756-.05,1.949-.05c1.19-.043,2.773-.122,4.644-.129l-.1.315a3.469,3.469,0,0,1-1.1-1.433,2.436,2.436,0,0,1-.129-.946,7.451,7.451,0,0,0-.079-.9,2.708,2.708,0,0,0-.8-1.684,1.784,1.784,0,0,0-1.634-.222,1.756,1.756,0,0,0-1.018,1.132,6.866,6.866,0,0,0-.308,1.433,5.164,5.164,0,0,1-.236,1.233,2.513,2.513,0,0,1-.48.831,1.3,1.3,0,0,1-.495.351.286.286,0,0,1-.143,0Z" transform="translate(-258.94 -74.121)" fill="#263238"/>
      <circle id="Ellipse_9" data-name="Ellipse 9" cx="1.412" cy="1.412" r="1.412" transform="translate(320.559 18.482)"/>
      <path id="Path_267" data-name="Path 267" d="M579.091,101.83h1.942a.953.953,0,0,1-1.061.989.8.8,0,0,1-.881-.989Z" transform="translate(-259.886 -76.647)" fill="#263238" fill-rule="evenodd"/>
      <rect id="Rectangle_97" data-name="Rectangle 97" width="14.992" height="14.992" rx="4.51" transform="translate(331.165 15.136)"/>
      <path id="Path_268" data-name="Path 268" d="M332.273,256.031c-6.45,0-9.316-5.059-12.068-9.954-2.293-4.035-4.658-8.205-8.535-8.205-4.3,0-6.45,1.627-8.915,3.511-2.68,2.057-5.733,4.386-11.681,4.386-6.543,0-9.252-6.134-12.125-12.627-2.207-5.016-4.715-10.663-8.47-10.663s-6.263,5.661-8.47,10.656c-2.866,6.5-5.59,12.634-12.125,12.634-6.163,0-9.194-3.268-11.882-6.141-2.451-2.637-4.579-4.916-8.721-4.916V234.1c4.407,0,6.614,2.365,9.173,5.11s5.54,5.941,11.43,5.941c6.141,0,8.771-5.955,11.566-12.261,2.279-5.167,4.873-11.022,9.029-11.022s6.743,5.855,9.03,11.022c2.788,6.306,5.425,12.261,11.566,12.261,5.733,0,8.7-2.257,11.3-4.25s4.751-3.64,9.316-3.64c4.235,0,6.686,4.3,9.065,8.514,2.687,4.744,5.468,9.639,11.538,9.639s8.829-4.586,11.523-9.03c2.48-4.085,4.816-7.94,9.073-7.94,4.393,0,6.6,2.451,9.159,5.289s5.539,6.156,11.466,6.156c6.156,0,8.786-6.342,11.573-13.064,2.293-5.532,4.887-11.8,9.029-11.8s6.665,4.816,9.044,9.474c2.687,5.246,5.453,10.656,11.559,10.656,5.891,0,8.836-3.153,11.466-5.941s4.766-5.11,9.173-5.11v.609c-4.142,0-6.263,2.279-8.721,4.916-2.687,2.867-5.733,6.141-11.882,6.141-6.45,0-9.316-5.59-12.1-10.993-2.308-4.493-4.68-9.144-8.506-9.144s-6.249,6.07-8.463,11.423c-2.867,6.915-5.575,13.444-12.14,13.444-6.177,0-9.216-3.375-11.9-6.349-2.465-2.738-4.586-5.1-8.707-5.1-3.913,0-6.163,3.712-8.549,7.646C341.589,251.287,338.68,256.031,332.273,256.031Z" transform="translate(-160.765 -110.664)"/>
      <path id="Path_269" data-name="Path 269" d="M230.4,280.481l.158-.186a.659.659,0,0,0,.559.315c.315,0,.473-.186.473-.566V278.5h-.939v-.236h1.2v1.777c0,.545-.251.81-.717.81A.86.86,0,0,1,230.4,280.481Z" transform="translate(-161.082 -126.643)" fill="#e0e0e0"/>
      <path id="Path_270" data-name="Path 270" d="M234.877,279.872v1.2h-.244v-.3a.716.716,0,0,1-.666.315c-.437,0-.717-.222-.717-.559s.186-.545.717-.545h.609v-.115c0-.33-.186-.509-.545-.509a1,1,0,0,0-.645.222l-.115-.193a1.218,1.218,0,0,1,.781-.258.717.717,0,0,1,.824.745Zm-.258.616v-.315h-.6c-.373,0-.494.15-.494.344s.179.365.487.365a.616.616,0,0,0,.609-.416Z" transform="translate(-161.89 -126.887)" fill="#e0e0e0"/>
      <path id="Path_271" data-name="Path 271" d="M238.3,279.96v1.118h-.265v-1.1a.53.53,0,0,0-.573-.609.631.631,0,0,0-.674.717v1.01h-.265v-1.928h.251v.351a.817.817,0,0,1,.717-.365.717.717,0,0,1,.81.8Z" transform="translate(-162.816 -126.896)" fill="#e0e0e0"/>
      <path id="Path_272" data-name="Path 272" d="M269.345,278.5v1.01h1.333v.237h-1.333v1.089h-.265V278.27h1.756v.236Z" transform="translate(-172.043 -126.646)" fill="#e0e0e0"/>
      <path id="Path_273" data-name="Path 273" d="M273.758,280.19h-1.612a.717.717,0,0,0,.76.666.781.781,0,0,0,.588-.251l.143.165a.931.931,0,0,1-.717.315.953.953,0,0,1-1.01-.982.937.937,0,1,1,1.87,0ZM272.146,280h1.369a.717.717,0,0,0-1.369,0Z" transform="translate(-172.844 -126.89)" fill="#e0e0e0"/>
      <path id="Path_274" data-name="Path 274" d="M277.241,279.8a.932.932,0,0,1-.96.982.838.838,0,0,1-.717-.394v.38h-.244V278.05h.258V279.2a.832.832,0,0,1,.717-.38.932.932,0,0,1,.946.975Zm-.258,0a.3.3,0,1,1-.029,0Z" transform="translate(-173.811 -126.584)" fill="#e0e0e0"/>
      <path id="Path_275" data-name="Path 275" d="M311.652,278.26v2.565h-.265V278.79l-1,1.72h-.129l-1.01-1.72v2.042H309v-2.566h.222l1.118,1.9,1.1-1.9Z" transform="translate(-183.355 -126.643)" fill="#e0e0e0"/>
      <path id="Path_276" data-name="Path 276" d="M315.177,279.872v1.2h-.251v-.3a.716.716,0,0,1-.659.315c-.437,0-.717-.222-.717-.559s.186-.545.717-.545h.616v-.115c0-.33-.186-.509-.545-.509a1,1,0,0,0-.645.222l-.115-.193a1.218,1.218,0,0,1,.781-.258.717.717,0,0,1,.817.745Zm-.258.616v-.315h-.609c-.373,0-.494.15-.494.344s.179.366.487.366a.631.631,0,0,0,.616-.416Z" transform="translate(-184.645 -126.887)" fill="#e0e0e0"/>
      <path id="Path_277" data-name="Path 277" d="M317.777,279.129v.251h-.057a.623.623,0,0,0-.652.717v.982h-.258V279.15h.251v.38A.717.717,0,0,1,317.777,279.129Z" transform="translate(-185.569 -126.888)" fill="#e0e0e0"/>
      <path id="Path_278" data-name="Path 278" d="M348.5,280.149h-1.433l-.308.717h-.279l1.175-2.566h.265l1.175,2.566h-.287Zm-.1-.215-.616-1.383-.616,1.383Z" transform="translate(-193.976 -126.655)" fill="#e0e0e0"/>
      <path id="Path_279" data-name="Path 279" d="M352.6,280.1a.932.932,0,0,1-.96.982.831.831,0,0,1-.717-.38v1.075h-.265v-2.637h.244v.38a.832.832,0,0,1,.717-.394.932.932,0,0,1,.982.975Zm-.258,0a.3.3,0,1,1-.007,0Z" transform="translate(-195.161 -126.889)" fill="#e0e0e0"/>
      <path id="Path_280" data-name="Path 280" d="M355.085,279.128v.251h-.065c-.4,0-.645.251-.645.717v.982h-.265V279.15h.251v.38A.717.717,0,0,1,355.085,279.128Z" transform="translate(-196.138 -126.888)" fill="#e0e0e0"/>
      <path id="Path_281" data-name="Path 281" d="M391.456,278.26v2.565H391.2V278.79l-1.01,1.72h-.129l-1.01-1.72v2.042h-.258v-2.566h.222l1.118,1.9,1.1-1.9Z" transform="translate(-205.966 -126.643)" fill="#e0e0e0"/>
      <path id="Path_282" data-name="Path 282" d="M394.987,279.872v1.2h-.251v-.3a.716.716,0,0,1-.659.315c-.437,0-.717-.222-.717-.559s.186-.545.717-.545h.616v-.115c0-.33-.186-.509-.545-.509a1,1,0,0,0-.645.222l-.115-.193a1.218,1.218,0,0,1,.781-.258.717.717,0,0,1,.817.745Zm-.258.616v-.315h-.609c-.373,0-.494.15-.494.344s.179.366.487.366a.631.631,0,0,0,.616-.416Z" transform="translate(-207.261 -126.887)" fill="#e0e0e0"/>
      <path id="Path_283" data-name="Path 283" d="M398.011,279.147l-.967,2.15c-.158.38-.365.5-.638.5a.659.659,0,0,1-.466-.179l.115-.193a.5.5,0,0,0,.351.143c.172,0,.294-.079.4-.323l.086-.186-.86-1.921h.272l.717,1.634.717-1.634Z" transform="translate(-207.992 -126.893)" fill="#e0e0e0"/>
      <path id="Path_284" data-name="Path 284" d="M426.26,280.481l.158-.186a.645.645,0,0,0,.552.315c.315,0,.48-.186.48-.566V278.5h-.939v-.236h1.2v1.777c0,.545-.258.81-.717.81A.846.846,0,0,1,426.26,280.481Z" transform="translate(-216.584 -126.643)" fill="#e0e0e0"/>
      <path id="Path_285" data-name="Path 285" d="M431.063,279.144v1.928h-.244v-.351a.781.781,0,0,1-.717.366.717.717,0,0,1-.817-.824v-1.118h.265v1.089c0,.416.208.624.58.624a.631.631,0,0,0,.652-.717v-1.01Z" transform="translate(-217.439 -126.89)" fill="#e0e0e0"/>
      <path id="Path_286" data-name="Path 286" d="M434.567,279.96v1.118H434.3v-1.1a.53.53,0,0,0-.573-.609.631.631,0,0,0-.674.717v1.01h-.265v-1.928h.251v.351a.824.824,0,0,1,.717-.365.717.717,0,0,1,.81.8Z" transform="translate(-218.434 -126.896)" fill="#e0e0e0"/>
      <path id="Path_287" data-name="Path 287" d="M466.16,280.481l.165-.186a.638.638,0,0,0,.552.315c.315,0,.473-.186.473-.566V278.5h-.939v-.236h1.2v1.777c0,.545-.251.81-.717.81A.86.86,0,0,1,466.16,280.481Z" transform="translate(-227.891 -126.643)" fill="#e0e0e0"/>
      <path id="Path_288" data-name="Path 288" d="M470.974,279.144v1.928h-.251v-.351a.781.781,0,0,1-.717.366.717.717,0,0,1-.81-.824v-1.118h.258v1.089c0,.416.215.624.58.624a.631.631,0,0,0,.659-.717v-1.01Z" transform="translate(-228.748 -126.89)" fill="#e0e0e0"/>
      <path id="Path_289" data-name="Path 289" d="M472.7,278.05h.258v2.716H472.7Z" transform="translate(-229.744 -126.584)" fill="#e0e0e0"/>
      <path id="Path_290" data-name="Path 290" d="M506.281,280.149h-1.433l-.308.717h-.28l1.168-2.566h.272l1.168,2.566h-.287Zm-.093-.215-.616-1.383-.616,1.383Z" transform="translate(-238.687 -126.655)" fill="#e0e0e0"/>
      <path id="Path_291" data-name="Path 291" d="M510.1,279.144v1.928h-.244v-.351a.781.781,0,0,1-.717.366.717.717,0,0,1-.81-.824v-1.118h.258v1.089c0,.416.208.624.581.624a.631.631,0,0,0,.652-.717v-1.01Z" transform="translate(-239.837 -126.89)" fill="#e0e0e0"/>
      <path id="Path_292" data-name="Path 292" d="M513.51,279.134v1.691a.846.846,0,0,1-.96.967,1.326,1.326,0,0,1-.9-.3l.129-.193a1.147,1.147,0,0,0,.76.258.623.623,0,0,0,.717-.717v-.251a.86.86,0,0,1-.752.38.939.939,0,1,1,0-1.87.874.874,0,0,1,.767.387v-.373Zm-.251.917a.3.3,0,1,0,.029,0Z" transform="translate(-240.735 -126.88)" fill="#e0e0e0"/>
      <path id="Path_293" data-name="Path 293" d="M211.66,279.336c0-.559.294-.9.717-.9s.717.337.717.9-.294.9-.717.9S211.66,279.9,211.66,279.336Zm1.218,0c0-.466-.208-.717-.516-.717s-.523.258-.523.717.215.717.523.717S212.878,279.809,212.878,279.336Z" transform="translate(-155.772 -126.694)" fill="#e0e0e0"/>
      <path id="Path_294" data-name="Path 294" d="M209.195,266.84V268.6h-.179V267H208.6v-.158Z" transform="translate(-154.904 -123.407)" fill="#e0e0e0"/>
      <path id="Path_295" data-name="Path 295" d="M210,267.716c0-.559.294-.9.717-.9s.717.337.717.9-.294.9-.717.9S210,268.275,210,267.716Zm1.218,0c0-.473-.208-.717-.516-.717s-.523.258-.523.717.215.717.523.717.53-.251.53-.717Z" transform="translate(-155.301 -123.402)" fill="#e0e0e0"/>
      <path id="Path_296" data-name="Path 296" d="M209.914,258.822v.158h-1.233v-.129l.717-.717c.194-.193.236-.315.236-.43a.4.4,0,0,0-.416-.33.58.58,0,0,0-.48.193l-.129-.108a.781.781,0,0,1,.623-.251c.358,0,.588.179.588.473a.717.717,0,0,1-.294.552l-.595.588Z" transform="translate(-154.907 -120.678)" fill="#e0e0e0"/>
      <path id="Path_297" data-name="Path 297" d="M210.73,258.1c0-.559.294-.889.717-.889s.717.33.717.889-.294.9-.717.9S210.73,258.665,210.73,258.1Zm1.218,0c0-.466-.208-.717-.516-.717s-.516.258-.516.717.208.717.516.717S211.948,258.572,211.948,258.1Z" transform="translate(-155.508 -120.678)" fill="#e0e0e0"/>
      <path id="Path_298" data-name="Path 298" d="M209.876,248.5c0,.294-.215.523-.645.523a.925.925,0,0,1-.631-.229l.086-.143a.767.767,0,0,0,.545.208c.294,0,.459-.136.459-.358s-.15-.351-.48-.351h-.122v-.129l.487-.616h-.9v-.158H209.8v.129l-.494.623C209.682,248.045,209.876,248.246,209.876,248.5Z" transform="translate(-154.904 -117.856)" fill="#e0e0e0"/>
      <path id="Path_299" data-name="Path 299" d="M210.73,248.156c0-.559.294-.9.717-.9s.717.337.717.9-.294.9-.717.9S210.73,248.715,210.73,248.156Zm1.218,0c0-.473-.208-.717-.516-.717s-.516.258-.516.717.208.717.516.717S211.948,248.622,211.948,248.156Z" transform="translate(-155.508 -117.859)" fill="#e0e0e0"/>
      <path id="Path_300" data-name="Path 300" d="M210.236,238.967h-.351v.459h-.179v-.459h-1v-.129l.932-1.168h.2l-.924,1.132h.76v-.4h.179v.4h.351Z" transform="translate(-154.936 -115.141)" fill="#e0e0e0"/>
      <path id="Path_301" data-name="Path 301" d="M211.07,238.546c0-.566.294-.9.717-.9s.717.33.717.9-.294.9-.717.9S211.07,239.1,211.07,238.546Zm1.218,0c0-.473-.208-.717-.516-.717s-.516.258-.516.717.208.717.516.717S212.288,239.012,212.288,238.546Z" transform="translate(-155.604 -115.135)" fill="#e0e0e0"/>
      <path id="Path_302" data-name="Path 302" d="M209.918,229.687c0,.3-.208.53-.638.53a.91.91,0,0,1-.631-.222l.086-.143a.781.781,0,0,0,.537.2c.3,0,.459-.143.459-.358s-.136-.365-.588-.365h-.373l.086-.889h.967v.165h-.8l-.065.559h.229C209.718,229.164,209.918,229.372,209.918,229.687Z" transform="translate(-154.919 -112.526)" fill="#e0e0e0"/>
      <path id="Path_303" data-name="Path 303" d="M210.74,229.316c0-.559.294-.9.717-.9s.717.337.717.9-.3.9-.717.9S210.74,229.882,210.74,229.316Zm1.218,0c0-.466-.215-.717-.516-.717s-.523.258-.523.717.215.717.523.717S211.958,229.789,211.958,229.316Z" transform="translate(-155.511 -112.52)" fill="#e0e0e0"/>
      <path id="Path_304" data-name="Path 304" d="M210.079,220.064a.545.545,0,0,1-.6.537c-.466,0-.717-.322-.717-.881a.811.811,0,0,1,.8-.91.86.86,0,0,1,.423.093l-.072.15a.6.6,0,0,0-.344-.086c-.38,0-.623.244-.623.717a1.008,1.008,0,0,0,0,.143.559.559,0,0,1,.537-.3.537.537,0,0,1,.595.537Zm-.179,0c0-.229-.172-.38-.444-.38a.408.408,0,0,0-.451.387c0,.193.158.38.466.38a.387.387,0,0,0,.43-.387Z" transform="translate(-154.95 -109.796)" fill="#e0e0e0"/>
      <path id="Path_305" data-name="Path 305" d="M210.89,219.706c0-.559.294-.9.717-.9s.717.337.717.9-.294.9-.717.9S210.89,220.265,210.89,219.706Zm1.218,0c0-.473-.208-.717-.516-.717s-.523.258-.523.717.215.717.523.717S212.108,220.179,212.108,219.706Z" transform="translate(-155.553 -109.797)" fill="#e0e0e0"/>
      <g id="Group_28" data-name="Group 28" transform="translate(64.352 110.339)" opacity="0.62">
        <rect id="Rectangle_98" data-name="Rectangle 98" width="210.867" height="0.179" fill="#e0e0e0"/>
        <rect id="Rectangle_99" data-name="Rectangle 99" width="210.867" height="0.179" transform="translate(0 6.872)" fill="#e0e0e0"/>
        <rect id="Rectangle_100" data-name="Rectangle 100" width="210.867" height="0.179" transform="translate(0 13.745)" fill="#e0e0e0"/>
        <rect id="Rectangle_101" data-name="Rectangle 101" width="210.867" height="0.179" transform="translate(0 20.617)" fill="#e0e0e0"/>
        <rect id="Rectangle_102" data-name="Rectangle 102" width="210.867" height="0.179" transform="translate(0 27.49)" fill="#e0e0e0"/>
        <rect id="Rectangle_103" data-name="Rectangle 103" width="210.867" height="0.179" transform="translate(0 34.369)" fill="#e0e0e0"/>
      </g>
      <path id="Path_306" data-name="Path 306" d="M287.969,221.887a2.1,2.1,0,1,0-2.1,2.093,2.1,2.1,0,0,0,2.1-2.093Z" transform="translate(-176.206 -110.071)"/>
      <path id="Path_307" data-name="Path 307" d="M374.025,268.005a2.093,2.093,0,1,0-.61,1.484A2.093,2.093,0,0,0,374.025,268.005Z" transform="translate(-200.596 -123.146)" fill="#455a64"/>
      <path id="Path_308" data-name="Path 308" d="M160.076,141.468a.272.272,0,0,1-.179-.065l-4.816-4.364-4.823,4.364a.279.279,0,0,1-.38,0,.265.265,0,0,1,0-.38l5.016-4.522a.272.272,0,0,1,.365,0l5.016,4.522a.265.265,0,0,1,0,.38.272.272,0,0,1-.2.065Z" transform="translate(-138.242 -86.453)" fill="#fafafa"/>
      <path id="Path_309" data-name="Path 309" d="M159.255,146.568H152a.265.265,0,0,1-.265-.265v-5.016a.265.265,0,0,1,.265-.272.272.272,0,0,1,.272.272V146h6.722v-4.78a.265.265,0,0,1,.265-.272.272.272,0,0,1,.272.272v5.016a.272.272,0,0,1-.272.33Z" transform="translate(-138.789 -87.733)" fill="#fafafa"/>
      <path id="Path_310" data-name="Path 310" d="M159.612,189.431h-9.459a.272.272,0,0,1-.272-.265v-6.041a1.354,1.354,0,0,1,1.354-1.354H153.7a1.526,1.526,0,0,1,1.433.939l.423,1.01h2.988a1.354,1.354,0,0,1,1.354,1.354v4.092a.265.265,0,0,1-.287.265Zm-9.194-.537h8.922v-3.82a.817.817,0,0,0-.817-.817h-3.167a.272.272,0,0,1-.251-.165l-.494-1.175a.975.975,0,0,0-.91-.609h-2.465a.817.817,0,0,0-.817.817Z" transform="translate(-138.265 -99.3)" fill="#fafafa"/>
      <path id="Path_311" data-name="Path 311" d="M152.185,343.288a.72.72,0,0,1-.7-.853l.394-2.515a.165.165,0,0,0-.05-.151l-1.8-1.806a.717.717,0,0,1,.394-1.211l2.515-.4a.165.165,0,0,0,.129-.093l1.161-2.272a.717.717,0,0,1,1.276,0l1.154,2.272a.187.187,0,0,0,.129.093l2.515.4a.717.717,0,0,1,.394,1.211l-1.8,1.806a.186.186,0,0,0-.05.151l.4,2.515a.707.707,0,0,1-1,.774l-2.272-1.147a.172.172,0,0,0-.165,0l-2.265,1.147a.716.716,0,0,1-.358.079Zm2.68-1.784a.716.716,0,0,1,.322.079l2.272,1.154a.179.179,0,0,0,.258-.186l-.4-2.515a.717.717,0,0,1,.2-.616l1.8-1.806a.179.179,0,0,0-.093-.3l-2.515-.4a.717.717,0,0,1-.53-.38l-1.154-2.272h0a.172.172,0,0,0-.158-.093.165.165,0,0,0-.158.093l-1.175,2.272a.716.716,0,0,1-.523.38l-2.515.4a.165.165,0,0,0-.143.122.172.172,0,0,0,.043.179l1.8,1.806a.717.717,0,0,1,.2.616L152,342.549a.179.179,0,0,0,.072.172.186.186,0,0,0,.186,0l2.265-1.154a.767.767,0,0,1,.344-.064Z" transform="translate(-138.248 -142.324)" fill="#fafafa"/>
      <path id="Path_312" data-name="Path 312" d="M159.963,291.558H149.335a.272.272,0,0,1-.265-.272v-6.7a.265.265,0,0,1,.265-.265h10.628a.265.265,0,0,1,.272.265v6.672a.272.272,0,0,1-.272.3Zm-10.355-.537H159.7v-6.163h-10.09Z" transform="translate(-138.035 -128.36)" fill="#fafafa"/>
      <path id="Path_313" data-name="Path 313" d="M154.726,289.659a.251.251,0,0,1-.179-.072l-5.446-4.816a.272.272,0,1,1,.358-.4l5.26,4.658,5.016-4.651a.265.265,0,0,1,.38,0,.272.272,0,0,1,0,.38l-5.188,4.816A.28.28,0,0,1,154.726,289.659Z" transform="translate(-138.008 -128.347)" fill="#fafafa"/>
      <path id="Path_314" data-name="Path 314" d="M149.552,292.509a.279.279,0,0,1-.194-.079.265.265,0,0,1,0-.38l3.232-3.232a.269.269,0,1,1,.38.38l-3.232,3.232A.272.272,0,0,1,149.552,292.509Z" transform="translate(-138.094 -129.613)" fill="#fafafa"/>
      <path id="Path_315" data-name="Path 315" d="M162.9,292.742a.287.287,0,0,1-.193-.079l-3.454-3.454a.269.269,0,1,1,.38-.38l3.454,3.454a.265.265,0,0,1,0,.38.272.272,0,0,1-.186.079Z" transform="translate(-140.897 -129.616)" fill="#fafafa"/>
      <rect id="Rectangle_104" data-name="Rectangle 104" width="1.569" height="1.569" transform="translate(16.051 120.207)"/>
      <rect id="Rectangle_105" data-name="Rectangle 105" width="1.569" height="1.569" transform="translate(19.011 120.207)"/>
      <rect id="Rectangle_106" data-name="Rectangle 106" width="1.569" height="1.569" transform="translate(13.092 120.207)"/>
      <rect id="Rectangle_107" data-name="Rectangle 107" width="1.569" height="1.569" transform="translate(19.011 122.679)"/>
      <rect id="Rectangle_108" data-name="Rectangle 108" width="1.569" height="1.569" transform="translate(16.051 122.679)"/>
      <rect id="Rectangle_109" data-name="Rectangle 109" width="1.569" height="1.569" transform="translate(13.092 122.679)"/>
      <path id="Path_316" data-name="Path 316" d="M160.426,239.976H149.282a.265.265,0,0,1-.272-.265v-9.166a.272.272,0,0,1,.272-.265h11.144a.272.272,0,0,1,.272.265v9.166a.265.265,0,0,1-.272.265Zm-10.878-.537h10.613V230.8H149.547Z" transform="translate(-138.018 -113.047)"/>
      <path id="Path_317" data-name="Path 317" d="M153.484,231.17a.272.272,0,0,1-.265-.272v-2.952a.272.272,0,1,1,.537,0V230.9A.272.272,0,0,1,153.484,231.17Z" transform="translate(-139.21 -112.296)"/>
      <path id="Path_318" data-name="Path 318" d="M160.244,231.17a.272.272,0,0,1-.265-.272v-2.952a.272.272,0,1,1,.537,0V230.9A.272.272,0,0,1,160.244,231.17Z" transform="translate(-141.125 -112.296)"/>
      <rect id="Rectangle_110" data-name="Rectangle 110" width="3.569" height="11.968" transform="translate(95.74 216.113)"/>
      <rect id="Rectangle_111" data-name="Rectangle 111" width="3.569" height="13.702" transform="translate(65.9 214.379)"/>
      <rect id="Rectangle_112" data-name="Rectangle 112" width="3.569" height="16.554" transform="translate(73.36 211.519)"/>
      <rect id="Rectangle_113" data-name="Rectangle 113" width="3.569" height="15.644" transform="translate(80.82 212.429)"/>
      <rect id="Rectangle_114" data-name="Rectangle 114" width="3.569" height="20.94" transform="translate(88.28 207.141)"/>
      <rect id="Rectangle_115" data-name="Rectangle 115" width="3.569" height="20.839" transform="translate(103.2 207.241)"/>
      <rect id="Rectangle_116" data-name="Rectangle 116" width="3.569" height="13.996" transform="translate(110.66 214.085)"/>
      <rect id="Rectangle_117" data-name="Rectangle 117" width="3.569" height="19.922" transform="translate(118.113 208.158)"/>
      <rect id="Rectangle_118" data-name="Rectangle 118" width="3.569" height="24.408" transform="translate(125.573 203.672)"/>
      <rect id="Rectangle_119" data-name="Rectangle 119" width="3.569" height="20.022" transform="translate(133.033 208.058)"/>
      <path id="Path_319" data-name="Path 319" d="M297.11,379.15H209.238A7.259,7.259,0,0,1,202,371.9V319.362a7.259,7.259,0,0,1,7.252-7.252H297.11a7.259,7.259,0,0,1,7.252,7.252V371.9a7.259,7.259,0,0,1-7.252,7.252Zm-87.872-66.324a6.543,6.543,0,0,0-6.536,6.536V371.9a6.543,6.543,0,0,0,6.536,6.536H297.11a6.543,6.543,0,0,0,6.536-6.536V319.362a6.543,6.543,0,0,0-6.536-6.536Z" transform="translate(-153.034 -136.236)" fill="#e0e0e0"/>
      <path id="Path_320" data-name="Path 320" d="M263.948,336.406c0,.107-10.162.186-22.7.186s-22.7-.079-22.7-.186,10.162-.186,22.7-.186S263.948,336.306,263.948,336.406Z" transform="translate(-157.724 -143.068)" fill="#e0e0e0"/>
      <path id="Path_321" data-name="Path 321" d="M391.375,350.152a11.946,11.946,0,0,0-2.508,1.921,12.184,12.184,0,0,0-1.928,2.508,12.044,12.044,0,0,0-1.211,2.924,12.261,12.261,0,0,0,0,6.278,12.045,12.045,0,0,0,1.211,2.924,12.186,12.186,0,0,0,1.928,2.508,11.988,11.988,0,0,0,2.508,1.928,12.41,12.41,0,0,0,2.917,1.211,12.1,12.1,0,0,0,9.2-1.211,11.712,11.712,0,0,0,2.479-1.906h0a11.923,11.923,0,0,0,1.928-2.508,12.067,12.067,0,0,0,0-12.125,11.925,11.925,0,0,0-1.928-2.508,11.765,11.765,0,0,0-2.508-1.921,12.071,12.071,0,0,0-12.089-.022Z" transform="translate(-204.983 -146.559)" fill="none"/>
      <path id="Path_322" data-name="Path 322" d="M402.556,370.19a12.1,12.1,0,0,1-9.2,1.211,12.408,12.408,0,0,1-2.917-1.211,11.985,11.985,0,0,1-2.508-1.928A12.178,12.178,0,0,1,386,365.754a12.046,12.046,0,0,1-1.211-2.924,12.262,12.262,0,0,1,0-6.278A12.045,12.045,0,0,1,386,353.629a12.182,12.182,0,0,1,1.928-2.508,11.946,11.946,0,0,1,2.508-1.921,12.139,12.139,0,0,1,2.917-1.218,11.992,11.992,0,0,1,3.146-.416V345.18a14.483,14.483,0,0,0-12.57,7.252,14.338,14.338,0,0,0-1.433,3.5,14.741,14.741,0,0,0,0,7.517,14.338,14.338,0,0,0,1.433,3.5,14.525,14.525,0,0,0,16.332,6.765,14.328,14.328,0,0,0,3.5-1.433A14.177,14.177,0,0,0,406.741,370l-1.7-1.691A11.716,11.716,0,0,1,402.556,370.19Z" transform="translate(-204.045 -145.607)"/>
      <path id="Path_323" data-name="Path 323" d="M416.247,355.929a14.562,14.562,0,0,0-10.262-10.262,14.777,14.777,0,0,0-3.755-.487v2.386a12.017,12.017,0,0,1,6.056,1.634,11.768,11.768,0,0,1,2.508,1.92,11.926,11.926,0,0,1,1.928,2.508,12.066,12.066,0,0,1,0,12.125,11.921,11.921,0,0,1-1.928,2.508h0l1.7,1.691h0a14.519,14.519,0,0,0,4.25-10.262A14.8,14.8,0,0,0,416.247,355.929Z" transform="translate(-209.774 -145.607)" fill="#e0e0e0"/>
      <path id="Path_324" data-name="Path 324" d="M397.753,366.409a1.3,1.3,0,0,1-1.433,1.283c-1.118,0-1.72-.767-1.72-2.093a1.987,1.987,0,0,1,2.909-1.921l-.179.344a1.434,1.434,0,0,0-.81-.2c-.9,0-1.483.581-1.483,1.72a3.233,3.233,0,0,0,0,.344,1.326,1.326,0,0,1,1.276-.717,1.268,1.268,0,0,1,1.44,1.24Zm-.423,0c0-.545-.409-.9-1.053-.9a.968.968,0,0,0-1.075.917c0,.459.38.9,1.1.9a.917.917,0,0,0,1.01-.9Z" transform="translate(-207.612 -150.783)" fill="#263238"/>
      <path id="Path_325" data-name="Path 325" d="M402.447,366.432c0,.717-.494,1.268-1.519,1.268a2.15,2.15,0,0,1-1.5-.537l.208-.344a1.778,1.778,0,0,0,1.283.487c.717,0,1.089-.344,1.089-.853s-.33-.874-1.4-.874h-.889l.215-2.1h2.286v.373h-1.913l-.143,1.333h.538C401.988,365.193,402.447,365.694,402.447,366.432Z" transform="translate(-208.981 -150.793)" fill="#263238"/>
      <path id="Path_326" data-name="Path 326" d="M404.24,364.552c0-.681.38-1.132.939-1.132s.946.444.946,1.132-.387,1.14-.946,1.14S404.24,365.269,404.24,364.552Zm1.591,0c0-.545-.258-.867-.652-.867s-.645.33-.645.867.251.867.645.867S405.831,365.111,405.831,364.552Zm1.885-1.1h.358l-2.866,4.185h-.358Zm-.91,3.081c0-.681.387-1.139.946-1.139s.939.459.939,1.139-.38,1.132-.939,1.132-.946-.437-.946-1.118Zm1.591,0c0-.537-.251-.867-.645-.867s-.652.323-.652.867.258.867.652.867.616-.315.616-.853Z" transform="translate(-210.344 -150.775)" fill="#263238"/>
      <path id="Path_327" data-name="Path 327" d="M469.346,359.7a14.676,14.676,0,0,1-.486,3.745,14.5,14.5,0,0,1-6.766,8.839,14.263,14.263,0,0,1-3.5,1.433,14.713,14.713,0,0,1-7.51,0,14.364,14.364,0,0,1-10.241-10.241,15.137,15.137,0,0,1-.459-2.745h2.4a13.072,13.072,0,0,0,.365,2.15,11.924,11.924,0,0,0,1.211,2.917,12.055,12.055,0,0,0,1.935,2.515,12.422,12.422,0,0,0,2.508,1.928,12.116,12.116,0,0,0,12.118,0,12.424,12.424,0,0,0,2.508-1.928,12.022,12.022,0,0,0,1.928-2.515,11.65,11.65,0,0,0,1.211-2.917,12.059,12.059,0,0,0,0-6.278,11.652,11.652,0,0,0-1.233-2.952,12.08,12.08,0,0,0-10.5-6.063V345.2a14.653,14.653,0,0,1,3.755.487,14.261,14.261,0,0,1,3.5,1.433,14.562,14.562,0,0,1,6.765,8.807A14.711,14.711,0,0,1,469.346,359.7Z" transform="translate(-220.585 -145.612)" fill="#e0e0e0"/>
      <path id="Path_328" data-name="Path 328" d="M454.781,363.15v.3l-1.763,3.891h-.466l1.72-3.805h-2.15v.781H451.7v-1.161Z" transform="translate(-223.793 -150.699)" fill="#263238"/>
      <path id="Path_329" data-name="Path 329" d="M459.387,366.1c0,.717-.495,1.268-1.519,1.268a2.15,2.15,0,0,1-1.5-.537l.208-.344a1.8,1.8,0,0,0,1.29.487c.717,0,1.082-.351,1.082-.853s-.33-.874-1.433-.874h-.889l.215-2.1h2.293v.38h-1.885l-.143,1.333h.537C458.914,364.863,459.387,365.364,459.387,366.1Z" transform="translate(-225.116 -150.699)" fill="#263238"/>
      <path id="Path_330" data-name="Path 330" d="M461.18,364.239c0-.681.38-1.139.946-1.139s.946.451.946,1.139-.394,1.139-.946,1.139S461.18,364.92,461.18,364.239Zm1.591,0c0-.545-.258-.867-.645-.867s-.645.33-.645.867.251.867.645.867S462.771,364.784,462.771,364.239Zm1.892-1.1h.351l-2.866,4.185H461.8Zm-.917,3.081c0-.717.387-1.139.946-1.139s.946.452.946,1.139-.387,1.132-.946,1.132S463.746,366.9,463.746,366.217Zm1.591,0c0-.545-.251-.867-.645-.867s-.645.323-.645.867.258.867.645.867.659-.33.659-.867Z" transform="translate(-226.479 -150.685)" fill="#263238"/>
      <path id="Path_331" data-name="Path 331" d="M466.948,359.679a11.919,11.919,0,0,1-.416,3.132,11.654,11.654,0,0,1-1.211,2.917,12.026,12.026,0,0,1-1.928,2.515,12.429,12.429,0,0,1-2.508,1.928,12.1,12.1,0,0,1-2.924,1.211,12.092,12.092,0,0,1-9.194-1.211,12.428,12.428,0,0,1-2.508-1.928,12.049,12.049,0,0,1-1.935-2.515,11.92,11.92,0,0,1-1.211-2.917,13.069,13.069,0,0,1-.366-2.15h0c0-.337-.043-.666-.043-1.01a12.066,12.066,0,0,1,3.547-8.571,12.132,12.132,0,0,1,8.6-3.583V345.11a14.512,14.512,0,0,0-14.512,14.512,9.517,9.517,0,0,0,.036,1.01h0a15.143,15.143,0,0,0,.459,2.745,14.364,14.364,0,0,0,10.241,10.241,14.714,14.714,0,0,0,7.51,0,14.262,14.262,0,0,0,3.5-1.433,14.447,14.447,0,0,0,7.252-12.555Z" transform="translate(-220.574 -145.587)"/>
      <path id="Path_332" data-name="Path 332" d="M457.208,378.6h-93.7a6.306,6.306,0,0,1-6.3-6.306V319.7a6.306,6.306,0,0,1,6.3-6.3h93.7a6.306,6.306,0,0,1,6.306,6.3v52.593A6.314,6.314,0,0,1,457.208,378.6Zm-93.7-64.482a5.59,5.59,0,0,0-5.583,5.582v52.593a5.6,5.6,0,0,0,5.583,5.59h93.7a5.6,5.6,0,0,0,5.59-5.59V319.7a5.59,5.59,0,0,0-5.59-5.582Z" transform="translate(-197.017 -136.601)" fill="#e0e0e0"/>
      <path id="Path_333" data-name="Path 333" d="M415.457,333.926c0,.107-9.8.186-21.879.186s-21.879-.079-21.879-.186,9.8-.186,21.879-.186S415.457,333.833,415.457,333.926Z" transform="translate(-201.123 -142.365)" fill="#e0e0e0"/>
      <path id="Path_334" data-name="Path 334" d="M540.2,221.632h0a1.5,1.5,0,0,1-1.5-1.491V192.151a1.5,1.5,0,0,1,1.5-1.491h0a1.491,1.491,0,0,1,1.49,1.491v27.991A1.491,1.491,0,0,1,540.2,221.632Z" transform="translate(-248.447 -101.82)" fill="#e0e0e0"/>
      <path id="Path_335" data-name="Path 335" d="M540.2,225.753h0a1.5,1.5,0,0,1-1.5-1.483V206.218a1.5,1.5,0,0,1,1.5-1.5h0a1.5,1.5,0,0,1,1.491,1.5V224.27A1.49,1.49,0,0,1,540.2,225.753Z" transform="translate(-248.447 -105.804)"/>
      <path id="Path_336" data-name="Path 336" d="M539.146,235.694v2.487h-.258v-2.272H538.3v-.229Z" transform="translate(-248.333 -114.577)" fill="#263238"/>
      <path id="Path_337" data-name="Path 337" d="M540.3,236.931c0-.788.416-1.261,1-1.261s1,.473,1,1.261-.423,1.268-1,1.268S540.3,237.727,540.3,236.931Zm1.727,0c0-.659-.3-1.025-.717-1.025s-.717.365-.717,1.025.294,1.032.717,1.032S542.027,237.6,542.027,236.931Z" transform="translate(-248.9 -114.574)" fill="#263238"/>
      <path id="Path_338" data-name="Path 338" d="M548.512,221.632h0A1.491,1.491,0,0,1,547,220.142V192.151a1.49,1.49,0,0,1,1.491-1.491h0a1.49,1.49,0,0,1,1.49,1.491v27.991a1.49,1.49,0,0,1-1.469,1.491Z" transform="translate(-250.799 -101.82)" fill="#e0e0e0"/>
      <path id="Path_339" data-name="Path 339" d="M548.512,223.506h0A1.491,1.491,0,0,1,547,222.022V198.288a1.5,1.5,0,0,1,1.491-1.5h0a1.5,1.5,0,0,1,1.49,1.5v23.735A1.49,1.49,0,0,1,548.512,223.506Z" transform="translate(-250.799 -103.557)"/>
      <path id="Path_340" data-name="Path 340" d="M547.89,237.948v.229h-1.741V238l1.032-1.018c.279-.272.337-.444.337-.609,0-.294-.208-.466-.588-.466a.839.839,0,0,0-.674.272l-.186-.158a1.139,1.139,0,0,1,.882-.351c.509,0,.824.258.824.674a1,1,0,0,1-.409.774l-.846.831Z" transform="translate(-250.535 -114.574)" fill="#263238"/>
      <path id="Path_341" data-name="Path 341" d="M549,236.931c0-.788.416-1.261.989-1.261s1,.473,1,1.261-.423,1.268-1,1.268S549,237.727,549,236.931Zm1.72,0c0-.659-.294-1.025-.717-1.025s-.717.365-.717,1.025.3,1.032.717,1.032.745-.365.745-1.032Z" transform="translate(-251.365 -114.574)" fill="#263238"/>
      <path id="Path_342" data-name="Path 342" d="M556.84,221.632h0a1.491,1.491,0,0,1-1.491-1.491V192.151a1.49,1.49,0,0,1,1.49-1.491h0a1.491,1.491,0,0,1,1.491,1.491v27.991A1.49,1.49,0,0,1,556.84,221.632Z" transform="translate(-253.165 -101.82)" fill="#e0e0e0"/>
      <path id="Path_343" data-name="Path 343" d="M556.84,227.439h0a1.491,1.491,0,0,1-1.491-1.491V212.161a1.49,1.49,0,0,1,1.49-1.491h0a1.491,1.491,0,0,1,1.491,1.491v13.795A1.491,1.491,0,0,1,556.84,227.439Z" transform="translate(-253.165 -107.49)"/>
      <path id="Path_344" data-name="Path 344" d="M556.179,237.462c0,.416-.3.717-.9.717a1.276,1.276,0,0,1-.9-.323l.122-.2a1.118,1.118,0,0,0,.774.287c.416,0,.638-.193.638-.5s-.208-.494-.666-.494h-.179v-.186l.716-.86h-1.276v-.229h1.605v.236l-.717.889C555.914,236.788,556.179,237.067,556.179,237.462Z" transform="translate(-252.89 -114.574)" fill="#263238"/>
      <path id="Path_345" data-name="Path 345" d="M557.39,236.931c0-.788.416-1.261.989-1.261s1,.473,1,1.261-.416,1.268-1,1.268S557.39,237.727,557.39,236.931Zm1.72,0c0-.659-.294-1.025-.716-1.025s-.717.365-.717,1.025.3,1.032.717,1.032S559.11,237.6,559.11,236.931Z" transform="translate(-253.743 -114.574)" fill="#263238"/>
      <path id="Path_346" data-name="Path 346" d="M565.161,221.632h0a1.491,1.491,0,0,1-1.491-1.491V192.151a1.491,1.491,0,0,1,1.491-1.491h0a1.49,1.49,0,0,1,1.49,1.491v27.991A1.49,1.49,0,0,1,565.161,221.632Z" transform="translate(-255.523 -101.82)" fill="#e0e0e0"/>
      <path id="Path_347" data-name="Path 347" d="M565.161,223.506h0a1.491,1.491,0,0,1-1.491-1.491V198.288a1.5,1.5,0,0,1,1.491-1.5h0a1.5,1.5,0,0,1,1.491,1.5v23.735A1.49,1.49,0,0,1,565.161,223.506Z" transform="translate(-255.523 -103.557)"/>
      <path id="Path_348" data-name="Path 348" d="M564.906,237.535h-.494v.652h-.258v-.652H562.72v-.186l1.319-1.648h.287l-1.276,1.605h1.082v-.573h.251v.573h.494Z" transform="translate(-255.253 -114.583)" fill="#263238"/>
      <path id="Path_349" data-name="Path 349" d="M566.1,236.931c0-.788.416-1.261.989-1.261s1,.473,1,1.261-.423,1.268-1,1.268S566.1,237.727,566.1,236.931Zm1.72,0c0-.659-.3-1.025-.717-1.025s-.717.365-.717,1.025.294,1.032.717,1.032S567.82,237.6,567.82,236.931Z" transform="translate(-256.211 -114.574)" fill="#263238"/>
      <path id="Path_350" data-name="Path 350" d="M573.49,221.632h0a1.5,1.5,0,0,1-1.49-1.491V192.151a1.5,1.5,0,0,1,1.5-1.491h0a1.491,1.491,0,0,1,1.491,1.491v27.991a1.49,1.49,0,0,1-1.5,1.491Z" transform="translate(-257.883 -101.82)" fill="#e0e0e0"/>
      <path id="Path_351" data-name="Path 351" d="M573.49,225.305h0a1.5,1.5,0,0,1-1.49-1.483V204.631a1.5,1.5,0,0,1,1.5-1.491h0a1.491,1.491,0,0,1,1.491,1.491v19.191A1.491,1.491,0,0,1,573.49,225.305Z" transform="translate(-257.883 -105.356)"/>
      <path id="Path_352" data-name="Path 352" d="M573.182,237.442c0,.423-.294.717-.9.717a1.247,1.247,0,0,1-.889-.323l.122-.2a1.082,1.082,0,0,0,.767.287c.423,0,.645-.208.645-.509s-.2-.516-.831-.516h-.53l.129-1.247h1.362v.251h-1.139l-.086.788h.323C572.895,236.7,573.182,237,573.182,237.442Z" transform="translate(-257.71 -114.569)" fill="#263238"/>
      <path id="Path_353" data-name="Path 353" d="M574.34,236.931c0-.788.416-1.261.989-1.261s1,.473,1,1.261-.416,1.268-1,1.268S574.34,237.727,574.34,236.931Zm1.727,0c0-.659-.3-1.025-.717-1.025s-.717.365-.717,1.025.3,1.032.717,1.032S576.067,237.6,576.067,236.931Z" transform="translate(-258.546 -114.574)" fill="#263238"/>
      <path id="Path_354" data-name="Path 354" d="M581.811,221.632h0a1.491,1.491,0,0,1-1.491-1.491V192.151a1.491,1.491,0,0,1,1.491-1.491h0a1.491,1.491,0,0,1,1.49,1.491v27.991A1.49,1.49,0,0,1,581.811,221.632Z" transform="translate(-260.241 -101.82)" fill="#e0e0e0"/>
      <path id="Path_355" data-name="Path 355" d="M581.809,227.252h0a1.433,1.433,0,0,1-1.491-1.354V212.11a1.519,1.519,0,0,1,1.491-1.62h0a1.49,1.49,0,0,1,1.49,1.491v13.781A1.49,1.49,0,0,1,581.809,227.252Z" transform="translate(-260.24 -107.439)"/>
      <path id="Path_356" data-name="Path 356" d="M581.383,237.432a.774.774,0,0,1-.846.767c-.659,0-1.018-.459-1.018-1.247a1.14,1.14,0,0,1,1.132-1.283,1.111,1.111,0,0,1,.595.136l-.108.2a.917.917,0,0,0-.48-.115c-.537,0-.881.344-.881,1.018v.208a.788.788,0,0,1,.76-.43.752.752,0,0,1,.846.745Zm-.251,0c0-.322-.237-.537-.623-.537a.552.552,0,1,0,0,1.082.545.545,0,0,0,.623-.537Z" transform="translate(-260.014 -114.574)" fill="#263238"/>
      <path id="Path_357" data-name="Path 357" d="M582.53,236.931c0-.788.416-1.261,1-1.261s1,.473,1,1.261-.423,1.268-1,1.268S582.53,237.727,582.53,236.931Zm1.727,0c0-.659-.3-1.025-.717-1.025s-.716.365-.716,1.025.294,1.032.716,1.032S584.257,237.6,584.257,236.931Z" transform="translate(-260.867 -114.574)" fill="#263238"/>
      <path id="Path_358" data-name="Path 358" d="M590.131,221.632h0a1.491,1.491,0,0,1-1.491-1.491V192.151a1.491,1.491,0,0,1,1.491-1.491h0a1.491,1.491,0,0,1,1.491,1.491v27.991A1.491,1.491,0,0,1,590.131,221.632Z" transform="translate(-262.599 -101.82)" fill="#e0e0e0"/>
      <path id="Path_359" data-name="Path 359" d="M590.131,222.945h0a1.491,1.491,0,0,1-1.491-1.491V196.3a1.491,1.491,0,0,1,1.491-1.491h0a1.491,1.491,0,0,1,1.491,1.491v25.161A1.491,1.491,0,0,1,590.131,222.945Z" transform="translate(-262.599 -102.996)"/>
      <path id="Path_360" data-name="Path 360" d="M589.557,235.7v.215l-1.046,2.308h-.272l1.018-2.257h-1.276v.459h-.251v-.717Z" transform="translate(-262.341 -114.583)" fill="#263238"/>
      <path id="Path_361" data-name="Path 361" d="M590.65,236.931c0-.788.416-1.261.989-1.261s1,.473,1,1.261-.423,1.268-1,1.268S590.65,237.727,590.65,236.931Zm1.72,0c0-.659-.294-1.025-.717-1.025s-.717.365-.717,1.025.3,1.032.717,1.032S592.37,237.6,592.37,236.931Z" transform="translate(-263.168 -114.574)" fill="#263238"/>
      <path id="Path_362" data-name="Path 362" d="M598.433,221.632h0A1.491,1.491,0,0,1,597,220.142V192.151a1.49,1.49,0,0,1,1.491-1.491h0a1.491,1.491,0,0,1,1.491,1.491v27.991a1.491,1.491,0,0,1-1.548,1.491Z" transform="translate(-264.967 -101.82)" fill="#e0e0e0"/>
      <path id="Path_363" data-name="Path 363" d="M598.433,228.564h0A1.491,1.491,0,0,1,597,227.081v-10.95a1.491,1.491,0,0,1,1.491-1.491h0a1.491,1.491,0,0,1,1.491,1.491v10.95a1.491,1.491,0,0,1-1.548,1.483Z" transform="translate(-264.967 -108.615)"/>
      <path id="Path_364" data-name="Path 364" d="M597.868,237.483c0,.444-.372.717-.967.717s-.96-.272-.96-.717a.624.624,0,0,1,.48-.609.566.566,0,0,1-.394-.545c0-.408.351-.659.874-.659s.874.251.874.659a.559.559,0,0,1-.394.545A.623.623,0,0,1,597.868,237.483Zm-.265,0c0-.308-.265-.5-.717-.5s-.717.193-.717.5.258.5.717.5S597.6,237.791,597.6,237.483Zm-.717-.717c.387,0,.616-.172.616-.444s-.244-.452-.616-.452-.616.172-.616.452.244.459.631.459Z" transform="translate(-264.667 -114.574)" fill="#263238"/>
      <path id="Path_365" data-name="Path 365" d="M599.12,236.931c0-.788.416-1.261,1-1.261s.989.473.989,1.261-.416,1.268-.989,1.268S599.12,237.727,599.12,236.931Zm1.727,0c0-.659-.3-1.025-.717-1.025s-.717.365-.717,1.025.3,1.032.717,1.032S600.847,237.6,600.847,236.931Z" transform="translate(-265.568 -114.574)" fill="#263238"/>
      <path id="Path_366" data-name="Path 366" d="M606.771,221.632h0a1.491,1.491,0,0,1-1.491-1.491V192.151a1.491,1.491,0,0,1,1.491-1.491h0a1.5,1.5,0,0,1,1.5,1.491v27.991A1.5,1.5,0,0,1,606.771,221.632Z" transform="translate(-267.314 -101.82)" fill="#e0e0e0"/>
      <path id="Path_367" data-name="Path 367" d="M606.769,231.185h0a1.433,1.433,0,0,1-1.491-1.354V225.99a1.519,1.519,0,0,1,1.491-1.62h0a1.5,1.5,0,0,1,1.5,1.491v3.834A1.5,1.5,0,0,1,606.769,231.185Z" transform="translate(-267.312 -111.372)"/>
      <path id="Path_368" data-name="Path 368" d="M606.006,236.908c0,.846-.466,1.29-1.139,1.29a1.1,1.1,0,0,1-.588-.136l.1-.208a.882.882,0,0,0,.488.122c.53,0,.881-.344.881-1.025v-.2a.8.8,0,0,1-.76.43.753.753,0,0,1-.839-.752.767.767,0,0,1,.846-.76C605.648,235.668,606.006,236.127,606.006,236.908Zm-.351-.494c0-.272-.229-.53-.659-.53a.544.544,0,0,0-.609.537c0,.33.244.537.624.537a.573.573,0,0,0,.645-.545Z" transform="translate(-266.993 -114.573)" fill="#263238"/>
      <path id="Path_369" data-name="Path 369" d="M607.25,236.931c0-.788.416-1.261,1-1.261s.989.473.989,1.261-.416,1.268-.989,1.268S607.25,237.727,607.25,236.931Zm1.727,0c0-.659-.3-1.025-.717-1.025s-.716.365-.716,1.025.3,1.032.716,1.032S608.977,237.6,608.977,236.931Z" transform="translate(-267.872 -114.574)" fill="#263238"/>
      <path id="Path_370" data-name="Path 370" d="M615.1,221.632h0a1.491,1.491,0,0,1-1.491-1.491V192.151a1.491,1.491,0,0,1,1.491-1.491h0a1.491,1.491,0,0,1,1.491,1.491v27.991A1.491,1.491,0,0,1,615.1,221.632Z" transform="translate(-269.674 -101.82)" fill="#e0e0e0"/>
      <path id="Path_371" data-name="Path 371" d="M615.1,227.252h0a1.433,1.433,0,0,1-1.491-1.354V212.11a1.519,1.519,0,0,1,1.491-1.62h0a1.491,1.491,0,0,1,1.491,1.491v13.781A1.491,1.491,0,0,1,615.1,227.252Z" transform="translate(-269.673 -107.439)"/>
      <path id="Path_372" data-name="Path 372" d="M612.368,235.694v2.487h-.251v-2.272h-.588v-.229Z" transform="translate(-269.085 -114.577)" fill="#263238"/>
      <path id="Path_373" data-name="Path 373" d="M613.53,236.931c0-.788.416-1.261,1-1.261s.989.473.989,1.261-.416,1.268-.989,1.268S613.53,237.727,613.53,236.931Zm1.727,0c0-.659-.3-1.025-.717-1.025s-.717.365-.717,1.025.3,1.032.717,1.032S615.257,237.6,615.257,236.931Z" transform="translate(-269.652 -114.574)" fill="#263238"/>
      <path id="Path_374" data-name="Path 374" d="M616.81,236.931c0-.788.416-1.261,1-1.261s.989.473.989,1.261-.416,1.268-.989,1.268S616.81,237.727,616.81,236.931Zm1.727,0c0-.659-.3-1.025-.717-1.025s-.717.365-.717,1.025.3,1.032.717,1.032S618.537,237.6,618.537,236.931Z" transform="translate(-270.581 -114.574)" fill="#263238"/>
      <path id="Path_375" data-name="Path 375" d="M581.85,171.066c0,.1-9.71.186-21.685.186s-21.685-.086-21.685-.186,9.71-.186,21.685-.186S581.85,170.966,581.85,171.066Z" transform="translate(-248.384 -96.214)" fill="#e0e0e0"/>
      <path id="Path_376" data-name="Path 376" d="M595.287,262.446c0,.1-12.727.186-28.429.186s-28.428-.086-28.428-.186,12.727-.186,28.428-.186S595.287,262.339,595.287,262.446Z" transform="translate(-248.37 -122.109)" fill="#e0e0e0"/>
      <path id="Path_377" data-name="Path 377" d="M595.287,276.076c0,.1-12.727.186-28.429.186s-28.428-.086-28.428-.186,12.727-.186,28.428-.186S595.287,275.969,595.287,276.076Z" transform="translate(-248.37 -125.972)" fill="#e0e0e0"/>
      <path id="Path_378" data-name="Path 378" d="M595.287,289.706c0,.1-12.727.186-28.429.186s-28.428-.086-28.428-.186,12.727-.186,28.428-.186S595.287,289.6,595.287,289.706Z" transform="translate(-248.37 -129.834)" fill="#e0e0e0"/>
      <path id="Path_379" data-name="Path 379" d="M595.287,303.336c0,.1-12.727.186-28.429.186s-28.428-.086-28.428-.186,12.727-.186,28.428-.186S595.287,303.229,595.287,303.336Z" transform="translate(-248.37 -133.697)" fill="#e0e0e0"/>
      <path id="Path_380" data-name="Path 380" d="M595.287,316.926c0,.1-12.727.186-28.429.186s-28.428-.086-28.428-.186,12.727-.186,28.428-.186S595.287,316.855,595.287,316.926Z" transform="translate(-248.37 -137.548)" fill="#e0e0e0"/>
      <path id="Path_381" data-name="Path 381" d="M589.405,363.147a9.589,9.589,0,0,1,9.589,9.574v7.969a9.588,9.588,0,0,1-9.581,9.574H535.931a9.581,9.581,0,0,1-9.574-9.574v-7.969a9.581,9.581,0,0,1,9.574-9.574h53.5m0-.717h-53.5a10.291,10.291,0,0,0-10.291,10.291v7.969a10.291,10.291,0,0,0,10.291,10.291h53.5A10.291,10.291,0,0,0,599.71,380.69v-7.969a10.291,10.291,0,0,0-10.3-10.291Z" transform="translate(-244.746 -150.495)"/>
      <path id="Path_382" data-name="Path 382" d="M590.751,383.4c0,.1-9.968.186-22.266.186s-22.266-.086-22.266-.186,9.968-.186,22.266-.186S590.751,383.3,590.751,383.4Z" transform="translate(-250.578 -156.384)"/>
      <path id="Path_383" data-name="Path 383" d="M280.736,98.705c5.518-4.3,10.391-9.646,16.726-12.656,10.885-5.174,23.735-2.551,35.358.652s23.9,6.915,35.494,3.583c10.749-3.046,19.3-12.5,21.685-23.355H190.52C193.179,88.988,209.8,107.168,231.905,111l1.383.222A62.934,62.934,0,0,0,280.736,98.705Z" transform="translate(-149.781 -66.758)"/>
      <path id="Path_384" data-name="Path 384" d="M503.115,87.448c5.618,5.1,13.809,6.45,21.341,5.611,5.074-.588,10.226-2.2,13.888-5.733a17.758,17.758,0,0,0,4.744-15.959,18.914,18.914,0,0,0-1.433-4.357H500.091C495.526,73,497.511,82.36,503.115,87.448Z" transform="translate(-236.79 -66.78)"/>
      <g id="Group_29" data-name="Group 29" transform="translate(40.739 0.172)" opacity="0.8">
        <path id="Path_385" data-name="Path 385" d="M280.736,98.705c5.518-4.3,10.391-9.646,16.726-12.656,10.885-5.174,23.735-2.551,35.358.652s23.9,6.915,35.494,3.583c10.749-3.046,19.3-12.5,21.685-23.355H190.52C193.179,88.988,209.8,107.168,231.905,111l1.383.222A62.934,62.934,0,0,0,280.736,98.705Z" transform="translate(-190.52 -66.93)" fill="#fff"/>
        <path id="Path_386" data-name="Path 386" d="M503.115,87.448c5.618,5.1,13.809,6.45,21.341,5.611,5.074-.588,10.226-2.2,13.888-5.733a17.758,17.758,0,0,0,4.744-15.959,18.914,18.914,0,0,0-1.433-4.357H500.091C495.526,73,497.511,82.36,503.115,87.448Z" transform="translate(-277.528 -66.953)" fill="#fff"/>
      </g>
      <path id="Path_387" data-name="Path 387" d="M561.6,94a2.924,2.924,0,0,1,.717.193l.545-.459.932.717-.294.645a2.868,2.868,0,0,1,.387.659l.717.065.158,1.168-.666.251a2.863,2.863,0,0,1-.194.717l.452.545-.717.939-.645-.294a2.773,2.773,0,0,1-.666.38l-.057.717-1.168.158-.251-.666a2.553,2.553,0,0,1-.717-.193l-.545.459-.939-.717.294-.645a2.864,2.864,0,0,1-.387-.659l-.717-.064-.158-1.168.666-.244a2.936,2.936,0,0,1,.2-.717l-.459-.545.717-.939.652.3a2.864,2.864,0,0,1,.659-.387l.064-.717,1.161-.158.251.666Zm-.351,1.605a1.261,1.261,0,1,0,1.268.967,1.261,1.261,0,0,0-1.268-.967Z" transform="translate(-253.825 -74.242)" fill="none"/>
      <path id="Path_388" data-name="Path 388" d="M562.114,96.481a.6.6,0,0,1,.33-.043,1.3,1.3,0,0,1,.8.423,1.39,1.39,0,0,1,.28,1.326,1.433,1.433,0,0,1-2.695.086,1.383,1.383,0,0,1,.2-1.34,1.254,1.254,0,0,1,.767-.473h.322a1.31,1.31,0,0,0-.874.609,1.118,1.118,0,0,0-.093,1.053,1.1,1.1,0,0,0,1.046.674,1.125,1.125,0,0,0,1-.717,1.139,1.139,0,0,0-.165-1.046A1.776,1.776,0,0,0,562.114,96.481Z" transform="translate(-254.691 -75.118)" fill="#263238"/>
      <path id="Path_389" data-name="Path 389" d="M561.56,93.974a3.914,3.914,0,0,1-.3-.645h.065l-1.161.193.079-.086a3.613,3.613,0,0,1-.05.717v.064h-.064a2.64,2.64,0,0,0-.631.38l-.057.043h-.071l-.645-.287h.158l-.717.939v-.179l.459.537.057.072v.086a2.722,2.722,0,0,0-.179.717v.1h-.093l-.666.251.108-.179c.057.365.108.76.165,1.168l-.143-.136.717.057h.108l.043.1a2.939,2.939,0,0,0,.366.623l.065.086-.043.1-.294.645-.057-.222.939.717h-.229l.545-.459.086-.072.107.043a2.939,2.939,0,0,0,.717.186h0l.158.115h0v.129l.065.165.122.33-.2-.115,1.168-.158-.158.165.065-.717v-.107l.1-.043a2.667,2.667,0,0,0,.623-.358l.086-.072.1.05.645.294-.215.057.716-.932v.215L563.76,98l-.065-.079v-.093a2.722,2.722,0,0,0,.193-.717v-.1h.086l.666-.236-.1.165c-.05-.408-.093-.8-.143-1.168l.129.122-.717-.072h-.079v-.072a2.868,2.868,0,0,0-.358-.638l-.05-.064.036-.064.3-.645v.136l-.917-.717h.143l-.559.437h-.036c-.466-.208-.717-.222-.717-.251a.344.344,0,0,1,.194,0,2.322,2.322,0,0,1,.573.136h-.065l.53-.48.05-.043.057.043.953.717.065.057-.036.079-.279.652v-.122a3.009,3.009,0,0,1,.409.717l-.108-.079.717.05h.107v.115c.05.373.107.76.165,1.168v.122l-.115.043-.666.258.1-.136a2.864,2.864,0,0,1-.2.788v-.172l.459.545.086.1-.079.115c-.237.3-.473.616-.717.939l-.086.115-.129-.064-.652-.287h.186a2.75,2.75,0,0,1-.717.416l.115-.151a4.2,4.2,0,0,1-.064.717v.143h-.151l-1.168.158h-.143l-.05-.143-.129-.33-.065-.165v-.129h0l.151.115h0a3.03,3.03,0,0,1-.788-.208h.186l-.545.459-.115.093-.115-.093-.932-.717-.122-.093.065-.129.294-.645V98.8a3.414,3.414,0,0,1-.409-.717l.151.107-.717-.064h-.136v-.136c-.05-.4-.1-.8-.15-1.168V96.7l.122-.043.666-.244-.1.129a2.911,2.911,0,0,1,.215-.781v.158l-.452-.552-.122-.143.072-.086.717-.932.065-.086.093.05.645.3h-.129a2.811,2.811,0,0,1,.716-.387l-.065.086a5.639,5.639,0,0,1,.079-.717v-.079h.072l1.168-.122h.05v.043A3.773,3.773,0,0,1,561.56,93.974Z" transform="translate(-253.786 -74.216)" fill="#263238"/>
      <path id="Path_390" data-name="Path 390" d="M489.489,322.188h.2a3,3,0,0,0,.595-.05,6.192,6.192,0,0,0,5.389-5.941c0-.9,0-1.856,0-2.867,0-8.155,0-20.173-.036-35.652,0-30.965,0-75.762-.065-131.142V74.078a7.94,7.94,0,0,0-.33-2.866,6.025,6.025,0,0,0-4.07-3.87,10.313,10.313,0,0,0-2.952-.244H140.12a6.077,6.077,0,0,0-5.8,4.228,13.515,13.515,0,0,0-.272,3.863V315.122a12.752,12.752,0,0,0,.064,1.67,6.041,6.041,0,0,0,2.487,4.092,5.955,5.955,0,0,0,3.031,1.1c1.089.05,2.229,0,3.332,0H310.3l179.156.129-179.156.129H139.568a6.386,6.386,0,0,1-5.826-5.461,12.537,12.537,0,0,1-.065-1.713V73.2a7.073,7.073,0,0,1,.294-2,6.45,6.45,0,0,1,6.149-4.486h348.1a10.384,10.384,0,0,1,3.039.251,6.356,6.356,0,0,1,4.3,4.078,8.185,8.185,0,0,1,.344,2.988v72.479c0,55.352-.043,100.148-.057,131.142,0,15.479,0,27.5-.036,35.652v2.866a6.249,6.249,0,0,1-3.21,5.239,6.072,6.072,0,0,1-2.243.717A7.331,7.331,0,0,1,489.489,322.188Z" transform="translate(-133.672 -66.689)" fill="none"/>
      <rect id="Rectangle_120" data-name="Rectangle 120" width="70.43" height="33.259" rx="9.57" transform="translate(202.804 55.861)" fill="#e0e0e0"/>
      <path id="Path_391" data-name="Path 391" d="M442.754,166.9v6.12h-.631v-5.561H440.69V166.9Z" transform="translate(-220.673 -95.087)" fill="#263238"/>
      <path id="Path_392" data-name="Path 392" d="M449.662,171.224c0,1.039-.717,1.856-2.221,1.856a3.168,3.168,0,0,1-2.2-.788l.308-.5a2.644,2.644,0,0,0,1.885.717c1.039,0,1.591-.509,1.591-1.247s-.494-1.283-2.049-1.283h-1.3l.315-3.067h3.383v.559h-2.8l-.208,1.949h.788C448.959,169.411,449.662,170.142,449.662,171.224Z" transform="translate(-221.962 -95.089)" fill="#263238"/>
      <path id="Path_393" data-name="Path 393" d="M452.52,169.94c0-1.949,1.025-3.11,2.444-3.11s2.451,1.161,2.451,3.11-1.039,3.117-2.451,3.117S452.52,171.889,452.52,169.94Zm4.242,0c0-1.634-.717-2.537-1.8-2.537s-1.806.9-1.806,2.537.716,2.537,1.806,2.537S456.762,171.574,456.762,169.94Z" transform="translate(-224.025 -95.067)" fill="#263238"/>
      <path id="Path_394" data-name="Path 394" d="M460.6,169.94c0-1.949,1.025-3.11,2.444-3.11s2.451,1.161,2.451,3.11-1.032,3.117-2.451,3.117S460.6,171.889,460.6,169.94Zm4.242,0c0-1.634-.717-2.537-1.8-2.537s-1.806.9-1.806,2.537.717,2.537,1.806,2.537S464.842,171.574,464.842,169.94Z" transform="translate(-226.315 -95.067)" fill="#263238"/>
      <path id="Path_395" data-name="Path 395" d="M473.9,171.415h-1.225v1.605h-.631v-1.605H468.59v-.459l3.246-4.056h.717l-3.125,3.956h2.659v-1.433h.609v1.433h1.2Z" transform="translate(-228.579 -95.087)" fill="#263238"/>
      <path id="Path_396" data-name="Path 396" d="M480.766,172.454v.559h-4.3v-.444l2.544-2.494c.717-.717.824-1.089.824-1.512,0-.717-.5-1.147-1.433-1.147a2.092,2.092,0,0,0-1.67.717l-.452-.38a2.752,2.752,0,0,1,2.15-.874c1.24,0,2.028.623,2.028,1.648a2.523,2.523,0,0,1-1,1.921l-2.085,2.042Z" transform="translate(-230.758 -95.08)" fill="#263238"/>
      <path id="Path_397" data-name="Path 397" d="M483.59,169.94c0-1.949,1.025-3.11,2.444-3.11s2.451,1.161,2.451,3.11-1.032,3.117-2.451,3.117S483.59,171.889,483.59,169.94Zm4.25,0c0-1.634-.717-2.537-1.806-2.537s-1.8.9-1.8,2.537.717,2.537,1.8,2.537S487.839,171.574,487.839,169.94Z" transform="translate(-232.83 -95.067)" fill="#263238"/>
      <path id="Path_398" data-name="Path 398" d="M462.321,158.036c0,.1-6.808.186-15.207.186s-15.214-.086-15.214-.186,6.808-.186,15.214-.186S462.321,157.957,462.321,158.036Z" transform="translate(-218.182 -92.522)" fill="#263238"/>
      <rect id="Rectangle_121" data-name="Rectangle 121" width="70.43" height="33.259" rx="9.57" transform="translate(126.003 56.04)" fill="#e0e0e0"/>
      <path id="Path_399" data-name="Path 399" d="M331.54,175.061v1H331.1v-1a3.282,3.282,0,0,1-2.093-.8l.251-.494a3,3,0,0,0,1.842.717v-2.3c-.96-.236-1.942-.53-1.942-1.684,0-.846.6-1.569,1.942-1.677v-1h.437v1a3.49,3.49,0,0,1,1.763.559l-.222.516a3.246,3.246,0,0,0-1.555-.509v2.322c.989.229,2.028.516,2.028,1.684C333.568,174.251,332.93,174.982,331.54,175.061ZM331.1,171.6v-2.214c-.9.072-1.3.538-1.3,1.089,0,.7.588.939,1.3,1.125Zm1.827,1.835c0-.717-.638-.924-1.39-1.111v2.186C332.5,174.437,332.93,173.993,332.93,173.434Z" transform="translate(-189.026 -95.35)" fill="#263238"/>
      <path id="Path_400" data-name="Path 400" d="M343.842,174.857v.559h-4.3v-.444l2.544-2.494c.717-.681.824-1.1.824-1.512,0-.717-.5-1.147-1.433-1.147a2.071,2.071,0,0,0-1.655.681l-.452-.387a2.766,2.766,0,0,1,2.15-.874c1.247,0,2.028.631,2.028,1.655a2.5,2.5,0,0,1-1,1.913l-2.078,2.05Z" transform="translate(-191.962 -95.749)" fill="#263238"/>
      <path id="Path_401" data-name="Path 401" d="M350.619,173.673c0,1.018-.717,1.806-2.222,1.806a3.153,3.153,0,0,1-2.207-.788l.308-.494a2.687,2.687,0,0,0,1.9.717c1.01,0,1.569-.473,1.569-1.233s-.516-1.218-1.648-1.218h-.437V172l1.691-2.15h-3.132v-.566h3.913v.451l-1.734,2.15C349.959,172,350.619,172.662,350.619,173.673Z" transform="translate(-193.894 -95.761)" fill="#263238"/>
      <path id="Path_402" data-name="Path 402" d="M357.532,173.641c0,1.039-.717,1.849-2.221,1.849a3.138,3.138,0,0,1-2.2-.788l.308-.494a2.666,2.666,0,0,0,1.878.717c1.046,0,1.6-.509,1.6-1.254s-.494-1.276-2.05-1.276h-1.3l.315-3.074h3.354v.566h-2.8l-.208,1.949h.788C356.829,171.828,357.532,172.552,357.532,173.641Z" transform="translate(-195.855 -95.772)" fill="#263238"/>
      <path id="Path_403" data-name="Path 403" d="M360.39,172.357c0-1.949,1.025-3.117,2.436-3.117s2.451,1.168,2.451,3.117-1.032,3.11-2.451,3.11S360.39,174.307,360.39,172.357Zm4.242,0c0-1.634-.717-2.537-1.806-2.537s-1.8.9-1.8,2.537.717,2.537,1.8,2.537S364.632,173.991,364.632,172.357Z" transform="translate(-197.918 -95.75)" fill="#263238"/>
      <path id="Path_404" data-name="Path 404" d="M369.291,177.066a1.341,1.341,0,0,1-.129.509l-.365,1.2h-.416l.294-1.268a.437.437,0,0,1-.315-.444.466.466,0,1,1,.932,0Z" transform="translate(-200.176 -97.835)" fill="#263238"/>
      <path id="Path_405" data-name="Path 405" d="M370.79,172.357c0-1.949,1.025-3.117,2.444-3.117s2.451,1.168,2.451,3.117-1.032,3.11-2.451,3.11S370.79,174.307,370.79,172.357Zm4.242,0c0-1.634-.717-2.537-1.8-2.537s-1.806.9-1.806,2.537.717,2.537,1.806,2.537S375.032,173.991,375.032,172.357Z" transform="translate(-200.865 -95.75)" fill="#263238"/>
      <path id="Path_406" data-name="Path 406" d="M378.87,172.357c0-1.949,1.025-3.117,2.444-3.117s2.451,1.168,2.451,3.117-1.032,3.11-2.451,3.11S378.87,174.307,378.87,172.357Zm4.242,0c0-1.634-.717-2.537-1.8-2.537s-1.8.9-1.8,2.537.717,2.537,1.8,2.537S383.112,173.991,383.112,172.357Z" transform="translate(-203.155 -95.75)" fill="#263238"/>
      <path id="Path_407" data-name="Path 407" d="M355.159,159.266c0,.1-6.17.186-13.781.186s-13.788-.086-13.788-.186,6.17-.186,13.788-.186S355.159,159.159,355.159,159.266Z" transform="translate(-188.623 -92.871)" fill="#263238"/>
      <rect id="Rectangle_122" data-name="Rectangle 122" width="70.43" height="33.259" rx="9.57" transform="translate(48.93 56.04)" fill="#a3a3a3"/>
      <path id="Path_408" data-name="Path 408" d="M223.182,175.061v1.01h-.437v-1a3.261,3.261,0,0,1-2.085-.8l.251-.494a2.974,2.974,0,0,0,1.835.717v-2.3c-.96-.236-1.942-.53-1.942-1.684,0-.846.609-1.569,1.942-1.677v-1h.437v1a3.447,3.447,0,0,1,1.777.545l-.215.516a3.3,3.3,0,0,0-1.562-.509V171.7c.989.237,2.035.516,2.035,1.684C225.2,174.251,224.573,174.982,223.182,175.061Zm-.437-3.461v-2.214c-.9.079-1.3.537-1.3,1.089,0,.7.58.939,1.3,1.125Zm1.827,1.835c0-.717-.638-.924-1.39-1.111v2.186C224.15,174.437,224.573,173.993,224.573,173.434Z" transform="translate(-158.322 -95.35)" fill="#fff"/>
      <path id="Path_409" data-name="Path 409" d="M235.489,174.857v.559h-4.3v-.444l2.544-2.494c.717-.681.824-1.1.824-1.512,0-.717-.5-1.147-1.433-1.147a2.071,2.071,0,0,0-1.67.681l-.444-.387a2.752,2.752,0,0,1,2.15-.874c1.24,0,2.028.631,2.028,1.655a2.523,2.523,0,0,1-1,1.913l-2.085,2.05Z" transform="translate(-161.255 -95.748)" fill="#fff"/>
      <path id="Path_410" data-name="Path 410" d="M239.914,169.32v6.12h-.631v-5.561H237.85v-.559Z" transform="translate(-163.193 -95.772)" fill="#fff"/>
      <path id="Path_411" data-name="Path 411" d="M242.77,172.357c0-1.949,1.025-3.117,2.436-3.117s2.451,1.168,2.451,3.117-1.032,3.11-2.451,3.11S242.77,174.307,242.77,172.357Zm4.242,0c0-1.634-.717-2.537-1.806-2.537s-1.8.9-1.8,2.537.717,2.537,1.8,2.537S247.012,173.991,247.012,172.357Z" transform="translate(-164.587 -95.75)" fill="#fff"/>
      <path id="Path_412" data-name="Path 412" d="M250.85,172.357c0-1.949,1.025-3.117,2.444-3.117s2.444,1.168,2.444,3.117-1.032,3.11-2.444,3.11S250.85,174.307,250.85,172.357Zm4.242,0c0-1.634-.717-2.537-1.8-2.537s-1.806.9-1.806,2.537.717,2.537,1.806,2.537S255.092,173.991,255.092,172.357Z" transform="translate(-166.877 -95.75)" fill="#fff"/>
      <path id="Path_413" data-name="Path 413" d="M259.751,177.066a1.434,1.434,0,0,1-.122.509l-.373,1.2h-.416l.294-1.268a.444.444,0,0,1-.315-.444.466.466,0,1,1,.932,0Z" transform="translate(-169.135 -97.835)" fill="#fff"/>
      <path id="Path_414" data-name="Path 414" d="M265.742,172.3c0,2.085-1.139,3.167-2.795,3.167a2.817,2.817,0,0,1-1.433-.33l.251-.509a2.15,2.15,0,0,0,1.19.287c1.326,0,2.15-.846,2.15-2.508a4.3,4.3,0,0,0,0-.494,1.942,1.942,0,0,1-1.87,1.046,1.856,1.856,0,0,1-2.064-1.835,1.913,1.913,0,0,1,2.092-1.885C264.861,169.237,265.742,170.369,265.742,172.3Zm-.867-1.211c0-.674-.559-1.311-1.612-1.311a1.34,1.34,0,0,0-1.5,1.326c0,.81.595,1.326,1.541,1.326a1.433,1.433,0,0,0,1.569-1.34Z" transform="translate(-169.802 -95.746)" fill="#fff"/>
      <path id="Path_415" data-name="Path 415" d="M268.82,172.357c0-1.949,1.025-3.117,2.444-3.117s2.451,1.168,2.451,3.117-1.032,3.11-2.451,3.11S268.82,174.307,268.82,172.357Zm4.242,0c0-1.634-.717-2.537-1.8-2.537s-1.806.9-1.806,2.537.717,2.537,1.806,2.537S273.062,173.991,273.062,172.357Z" transform="translate(-171.969 -95.75)" fill="#fff"/>
      <path id="Path_416" data-name="Path 416" d="M244.588,159.266c0,.1-5.669.186-12.663.186s-12.656-.086-12.656-.186,5.661-.186,12.656-.186S244.588,159.159,244.588,159.266Z" transform="translate(-157.928 -92.871)" fill="#fff"/>
      <path id="Path_417" data-name="Path 417" d="M154.744,102.041h0a6.134,6.134,0,0,1-6.134-6.134h0a6.127,6.127,0,0,1,6.134-6.127h0a6.127,6.127,0,0,1,6.127,6.127h0a6.127,6.127,0,0,1-6.127,6.134Z" transform="translate(-137.905 -73.233)" fill="#fff"/>
    </g>
  </g>
</svg>
