<svg xmlns="http://www.w3.org/2000/svg" width="324.351" height="362" viewBox="0 0 324.351 362">
  <g id="Designer-pana" transform="translate(-28.91 -49.29)" opacity="0.299">
    <g id="freepik--background-complete--inject-2" transform="translate(46.724 49.29)">
      <path id="Path_35" data-name="Path 35" d="M440.71,138.513c0-.128.587-.233,1.317-.233s1.317.105,1.317.233-.587.226-1.317.226S440.71,138.634,440.71,138.513Z" transform="translate(-148.665 -71.319)" fill="#e0e0e0"/>
      <path id="Path_36" data-name="Path 36" d="M433.71,138.513c0-.128.587-.233,1.317-.233s1.317.105,1.317.233-.587.226-1.317.226S433.71,138.634,433.71,138.513Z" transform="translate(-146.932 -71.319)" fill="#e0e0e0"/>
      <path id="Path_37" data-name="Path 37" d="M426.71,138.513c0-.128.587-.233,1.317-.233s1.317.105,1.317.233-.594.226-1.317.226S426.71,138.634,426.71,138.513Z" transform="translate(-145.2 -71.319)" fill="#e0e0e0"/>
      <path id="Path_38" data-name="Path 38" d="M419.71,138.513c0-.128.587-.233,1.317-.233s1.317.105,1.317.233-.594.226-1.317.226S419.71,138.634,419.71,138.513Z" transform="translate(-143.467 -71.319)" fill="#e0e0e0"/>
      <path id="Path_39" data-name="Path 39" d="M412.7,138.513c0-.128.594-.233,1.317-.233s1.317.105,1.317.233-.587.226-1.317.226S412.7,138.634,412.7,138.513Z" transform="translate(-141.731 -71.319)" fill="#e0e0e0"/>
      <path id="Path_40" data-name="Path 40" d="M405.7,138.513c0-.128.594-.233,1.317-.233s1.317.105,1.317.233-.587.226-1.317.226S405.7,138.634,405.7,138.513Z" transform="translate(-139.999 -71.319)" fill="#e0e0e0"/>
      <path id="Path_41" data-name="Path 41" d="M398.7,138.513c0-.128.587-.233,1.317-.233s1.317.105,1.317.233-.587.226-1.317.226S398.7,138.634,398.7,138.513Z" transform="translate(-138.266 -71.319)" fill="#e0e0e0"/>
      <path id="Path_42" data-name="Path 42" d="M391.7,138.513c0-.128.587-.233,1.317-.233s1.317.105,1.317.233-.587.226-1.317.226S391.7,138.634,391.7,138.513Z" transform="translate(-136.533 -71.319)" fill="#e0e0e0"/>
      <path id="Path_43" data-name="Path 43" d="M384.7,138.513c0-.128.587-.233,1.317-.233s1.317.105,1.317.233-.595.226-1.317.226S384.7,138.634,384.7,138.513Z" transform="translate(-134.8 -71.319)" fill="#e0e0e0"/>
      <path id="Path_44" data-name="Path 44" d="M377.69,138.513c0-.128.594-.233,1.317-.233s1.317.105,1.317.233-.587.226-1.317.226S377.69,138.634,377.69,138.513Z" transform="translate(-133.065 -71.319)" fill="#e0e0e0"/>
      <path id="Path_45" data-name="Path 45" d="M370.69,138.513c0-.128.594-.233,1.317-.233s1.317.105,1.317.233-.587.226-1.317.226S370.69,138.634,370.69,138.513Z" transform="translate(-131.332 -71.319)" fill="#e0e0e0"/>
      <path id="Path_46" data-name="Path 46" d="M363.69,138.513c0-.128.587-.233,1.317-.233s1.317.105,1.317.233-.587.226-1.317.226S363.69,138.634,363.69,138.513Z" transform="translate(-129.599 -71.319)" fill="#e0e0e0"/>
      <path id="Path_47" data-name="Path 47" d="M358.626,136.57c.128,0,.226.594.226,1.317v.2l-.226-.226c.632,0,1.121.105,1.121.226s-.489.211-1.121.226H358.4v-.436C358.4,137.164,358.5,136.57,358.626,136.57Z" transform="translate(-128.29 -70.896)" fill="#e0e0e0"/>
      <path id="Path_48" data-name="Path 48" d="M358.626,129.57c.128,0,.226.594.226,1.317s-.1,1.317-.226,1.317-.226-.587-.226-1.317S358.5,129.57,358.626,129.57Z" transform="translate(-128.29 -69.163)" fill="#e0e0e0"/>
      <path id="Path_49" data-name="Path 49" d="M358.626,122.57c.128,0,.226.587.226,1.317s-.1,1.317-.226,1.317-.226-.587-.226-1.317S358.5,122.57,358.626,122.57Z" transform="translate(-128.29 -67.43)" fill="#e0e0e0"/>
      <path id="Path_50" data-name="Path 50" d="M358.626,115.57c.128,0,.226.587.226,1.317s-.1,1.317-.226,1.317-.226-.587-.226-1.317S358.5,115.57,358.626,115.57Z" transform="translate(-128.29 -65.698)" fill="#e0e0e0"/>
      <path id="Path_51" data-name="Path 51" d="M358.626,108.57c.128,0,.226.587.226,1.317s-.1,1.317-.226,1.317-.226-.594-.226-1.317S358.5,108.57,358.626,108.57Z" transform="translate(-128.29 -63.965)" fill="#e0e0e0"/>
      <path id="Path_52" data-name="Path 52" d="M358.626,101.56c.128,0,.226.594.226,1.324s-.1,1.317-.226,1.317-.226-.594-.226-1.317S358.5,101.56,358.626,101.56Z" transform="translate(-128.29 -62.229)" fill="#e0e0e0"/>
      <path id="Path_53" data-name="Path 53" d="M358.626,94.56c.128,0,.226.594.226,1.317s-.1,1.317-.226,1.317-.226-.587-.226-1.317S358.5,94.56,358.626,94.56Z" transform="translate(-128.29 -60.497)" fill="#e0e0e0"/>
      <path id="Path_54" data-name="Path 54" d="M358.626,87.56c.128,0,.226.587.226,1.317s-.1,1.317-.226,1.317-.226-.587-.226-1.317S358.5,87.56,358.626,87.56Z" transform="translate(-128.29 -58.764)" fill="#e0e0e0"/>
      <path id="Path_55" data-name="Path 55" d="M358.626,80.56c.128,0,.226.587.226,1.317s-.1,1.317-.226,1.317-.226-.587-.226-1.317S358.5,80.56,358.626,80.56Z" transform="translate(-128.29 -57.031)" fill="#e0e0e0"/>
      <path id="Path_56" data-name="Path 56" d="M358.626,73.56c.128,0,.226.587.226,1.317s-.1,1.317-.226,1.317-.226-.594-.226-1.317S358.5,73.56,358.626,73.56Z" transform="translate(-128.29 -55.298)" fill="#e0e0e0"/>
      <path id="Path_57" data-name="Path 57" d="M358.626,66.56c.128,0,.226.587.226,1.317s-.1,1.317-.226,1.317-.226-.594-.226-1.317S358.5,66.56,358.626,66.56Z" transform="translate(-128.29 -53.565)" fill="#e0e0e0"/>
      <path id="Path_58" data-name="Path 58" d="M358.626,59.55c.128,0,.226.594.226,1.317s-.1,1.317-.226,1.317-.226-.587-.226-1.317S358.5,59.55,358.626,59.55Z" transform="translate(-128.29 -51.83)" fill="#e0e0e0"/>
      <path id="Path_59" data-name="Path 59" d="M359.024,53.018c0,.06-.15.12-.4.158l.166-.158a6.093,6.093,0,0,1,.06.918c0,.752-.1,1.317-.226,1.317s-.226-.587-.226-1.317a6.105,6.105,0,0,1,.06-.918V52.83h.128C358.851,52.89,359.024,52.958,359.024,53.018Z" transform="translate(-128.289 -50.166)" fill="#e0e0e0"/>
      <path id="Path_60" data-name="Path 60" d="M365.364,53c0,.12-.595.226-1.317.226s-1.317-.105-1.317-.226.587-.233,1.317-.233S365.364,52.875,365.364,53Z" transform="translate(-129.361 -50.151)" fill="#e0e0e0"/>
      <path id="Path_61" data-name="Path 61" d="M372.364,53c0,.12-.587.226-1.317.226s-1.317-.105-1.317-.226.587-.233,1.317-.233S372.364,52.875,372.364,53Z" transform="translate(-131.094 -50.151)" fill="#e0e0e0"/>
      <path id="Path_62" data-name="Path 62" d="M379.364,53c0,.12-.587.226-1.317.226s-1.317-.105-1.317-.226.587-.233,1.317-.233S379.364,52.875,379.364,53Z" transform="translate(-132.827 -50.151)" fill="#e0e0e0"/>
      <path id="Path_63" data-name="Path 63" d="M386.364,53c0,.12-.587.226-1.317.226s-1.317-.105-1.317-.226.594-.233,1.317-.233S386.364,52.875,386.364,53Z" transform="translate(-134.56 -50.151)" fill="#e0e0e0"/>
      <path id="Path_64" data-name="Path 64" d="M393.364,53c0,.12-.587.226-1.317.226s-1.317-.105-1.317-.226.594-.233,1.317-.233S393.364,52.875,393.364,53Z" transform="translate(-136.293 -50.151)" fill="#e0e0e0"/>
      <path id="Path_65" data-name="Path 65" d="M400.373,53c0,.12-.594.226-1.317.226s-1.317-.105-1.317-.226.587-.233,1.317-.233S400.373,52.875,400.373,53Z" transform="translate(-138.028 -50.151)" fill="#e0e0e0"/>
      <path id="Path_66" data-name="Path 66" d="M407.373,53c0,.12-.594.226-1.317.226s-1.317-.105-1.317-.226.587-.233,1.317-.233S407.373,52.875,407.373,53Z" transform="translate(-139.761 -50.151)" fill="#e0e0e0"/>
      <path id="Path_67" data-name="Path 67" d="M414.374,53c0,.12-.587.226-1.317.226s-1.317-.105-1.317-.226.587-.233,1.317-.233S414.374,52.875,414.374,53Z" transform="translate(-141.494 -50.151)" fill="#e0e0e0"/>
      <path id="Path_68" data-name="Path 68" d="M421.373,53c0,.12-.587.226-1.317.226s-1.317-.105-1.317-.226.587-.233,1.317-.233S421.373,52.875,421.373,53Z" transform="translate(-143.227 -50.151)" fill="#e0e0e0"/>
      <path id="Path_69" data-name="Path 69" d="M428.374,53c0,.12-.587.226-1.317.226s-1.317-.105-1.317-.226.594-.233,1.317-.233S428.374,52.875,428.374,53Z" transform="translate(-144.96 -50.151)" fill="#e0e0e0"/>
      <path id="Path_70" data-name="Path 70" d="M435.381,53c0,.12-.594.226-1.317.226s-1.324-.105-1.324-.226.594-.233,1.324-.233S435.381,52.875,435.381,53Z" transform="translate(-146.692 -50.151)" fill="#e0e0e0"/>
      <path id="Path_71" data-name="Path 71" d="M442.384,53c0,.12-.594.226-1.317.226s-1.317-.105-1.317-.226.587-.233,1.317-.233S442.384,52.875,442.384,53Z" transform="translate(-148.428 -50.151)" fill="#e0e0e0"/>
      <path id="Path_72" data-name="Path 72" d="M444.136,58.244c-.128,0-.226-.587-.226-1.317s.1-1.317.226-1.317.233.594.233,1.317S444.264,58.244,444.136,58.244Z" transform="translate(-149.458 -50.855)" fill="#e0e0e0"/>
      <path id="Path_73" data-name="Path 73" d="M444.136,65.254c-.128,0-.226-.594-.226-1.317s.1-1.317.226-1.317.233.587.233,1.317S444.264,65.254,444.136,65.254Z" transform="translate(-149.458 -52.59)" fill="#e0e0e0"/>
      <path id="Path_74" data-name="Path 74" d="M444.136,72.254c-.128,0-.226-.594-.226-1.317s.1-1.317.226-1.317.233.587.233,1.317S444.264,72.254,444.136,72.254Z" transform="translate(-149.458 -54.323)" fill="#e0e0e0"/>
      <path id="Path_75" data-name="Path 75" d="M444.136,79.254c-.128,0-.226-.587-.226-1.317s.1-1.317.226-1.317.233.587.233,1.317S444.264,79.254,444.136,79.254Z" transform="translate(-149.458 -56.056)" fill="#e0e0e0"/>
      <path id="Path_76" data-name="Path 76" d="M444.136,86.254c-.128,0-.226-.587-.226-1.317s.1-1.317.226-1.317.233.587.233,1.317S444.264,86.254,444.136,86.254Z" transform="translate(-149.458 -57.788)" fill="#e0e0e0"/>
      <path id="Path_77" data-name="Path 77" d="M444.136,93.254c-.128,0-.226-.587-.226-1.317s.1-1.317.226-1.317.233.594.233,1.317S444.264,93.254,444.136,93.254Z" transform="translate(-149.458 -59.521)" fill="#e0e0e0"/>
      <path id="Path_78" data-name="Path 78" d="M444.136,100.261c-.128,0-.226-.594-.226-1.324s.1-1.317.226-1.317.233.594.233,1.317S444.264,100.261,444.136,100.261Z" transform="translate(-149.458 -61.254)" fill="#e0e0e0"/>
      <path id="Path_79" data-name="Path 79" d="M444.136,107.264c-.128,0-.226-.594-.226-1.317s.1-1.317.226-1.317.233.587.233,1.317S444.264,107.264,444.136,107.264Z" transform="translate(-149.458 -62.989)" fill="#e0e0e0"/>
      <path id="Path_80" data-name="Path 80" d="M444.136,114.264c-.128,0-.226-.587-.226-1.317s.1-1.317.226-1.317.233.587.233,1.317S444.264,114.264,444.136,114.264Z" transform="translate(-149.458 -64.722)" fill="#e0e0e0"/>
      <path id="Path_81" data-name="Path 81" d="M444.136,121.264c-.128,0-.226-.587-.226-1.317s.1-1.317.226-1.317.233.587.233,1.317S444.264,121.264,444.136,121.264Z" transform="translate(-149.458 -66.455)" fill="#e0e0e0"/>
      <path id="Path_82" data-name="Path 82" d="M444.136,128.264c-.128,0-.226-.587-.226-1.317s.1-1.317.226-1.317.233.594.233,1.317S444.264,128.264,444.136,128.264Z" transform="translate(-149.458 -68.188)" fill="#e0e0e0"/>
      <path id="Path_83" data-name="Path 83" d="M444.136,135.264c-.128,0-.226-.587-.226-1.317s.1-1.317.226-1.317.233.594.233,1.317S444.264,135.264,444.136,135.264Z" transform="translate(-149.458 -69.921)" fill="#e0e0e0"/>
      <rect id="Rectangle_22" data-name="Rectangle 22" width="4.763" height="4.763" transform="translate(292.3 64.154)" fill="#e0e0e0"/>
      <rect id="Rectangle_23" data-name="Rectangle 23" width="4.763" height="4.763" transform="translate(227.951 64.809)" fill="#e0e0e0"/>
      <rect id="Rectangle_24" data-name="Rectangle 24" width="4.763" height="4.763" transform="translate(292.3)" fill="#e0e0e0"/>
      <rect id="Rectangle_25" data-name="Rectangle 25" width="4.763" height="4.763" transform="translate(227.951 0.467)" fill="#e0e0e0"/>
      <path id="Path_84" data-name="Path 84" d="M96.63,142.693c8.322-7.3,9.082-19.218,7.525-29.684-.256-1.746-.263-3.619-1.272-5.064s-3.062-2.257-4.515-1.377c-1.234.752-1.64,2.34-2.257,3.672a10.324,10.324,0,0,1-3.679,4.379,4.019,4.019,0,0,1-3.567.752c-1.61-.67-2.017-2.739-2.2-4.515l-1.016-9.782a16.418,16.418,0,0,0-1.1-5.124,5.463,5.463,0,0,0-3.807-3.288,3.312,3.312,0,0,0-3.822,2.649,15.266,15.266,0,0,0,.2,2.182,1.844,1.844,0,0,1-.888,1.844,2.115,2.115,0,0,1-2-.587,23.478,23.478,0,0,1-4.861-5.831,32.446,32.446,0,0,0-4.6-6.02A9.513,9.513,0,0,0,58,84.017a5.694,5.694,0,0,0-5.365,4.515c-.361,2.543,1.347,4.868,3.13,6.689a39.384,39.384,0,0,0,8.962,6.832,3.243,3.243,0,0,1,1.5,1.309c.5,1.121-.474,2.4-1.58,2.9a19.964,19.964,0,0,1-4.018.91,3.948,3.948,0,0,0-3.123,2.415c-.519,1.866,1.181,3.567,2.784,4.628a33.537,33.537,0,0,0,10.534,4.613,11.438,11.438,0,0,1,3.89,1.324,3.217,3.217,0,0,1,1.445,3.589,3.269,3.269,0,0,1-3.424,1.768,23.391,23.391,0,0,1-3.988-1.038c-2.5-.64-5.576-.135-6.885,2.107a5.568,5.568,0,0,0-.053,4.944,12.792,12.792,0,0,0,3.123,4.026,33.762,33.762,0,0,0,15.44,8.488c5.771,1.317,10.986,1.272,16.291-1.362" transform="translate(-52.585 -57.884)" fill="#e0e0e0"/>
      <path id="Path_85" data-name="Path 85" d="M98.4,151.05a77.292,77.292,0,0,0-4.439-14.063,156.5,156.5,0,0,0-8.066-16.148l-2.333-4.131c-.752-1.347-1.5-2.686-2.355-3.958a78.043,78.043,0,0,0-5.162-7c-1.753-2.144-3.491-4.116-5.132-5.952s-3.205-3.506-4.7-4.974a61.448,61.448,0,0,0-7.525-6.4c-.948-.685-1.7-1.189-2.212-1.5l-.587-.376a1.579,1.579,0,0,0-.2-.12l.188.143.564.406c.5.354,1.242.873,2.175,1.573a65.851,65.851,0,0,1,7.464,6.464c1.5,1.5,3.01,3.153,4.658,4.989s3.356,3.815,5.1,5.967a78.649,78.649,0,0,1,5.124,6.983c.82,1.257,1.573,2.588,2.34,3.943l2.333,4.123a162.468,162.468,0,0,1,8.074,16.1,78.929,78.929,0,0,1,4.515,14" transform="translate(-53.354 -58.484)" fill="#fafafa"/>
      <path id="Path_86" data-name="Path 86" d="M89.429,115.008a3.535,3.535,0,0,0,.09-.752c.038-.5.068-1.211.1-2.092.053-1.761.045-4.206,0-6.892s0-5.124.09-6.885c0-.88.075-1.588.105-2.084a3.542,3.542,0,0,0,0-.752,3.764,3.764,0,0,0-.135.752c-.075.489-.15,1.2-.211,2.077-.143,1.761-.211,4.206-.188,6.9s.045,5.056.06,6.892v2.084A3.237,3.237,0,0,0,89.429,115.008Z" transform="translate(-61.668 -60.742)" fill="#fafafa"/>
      <path id="Path_87" data-name="Path 87" d="M59.05,119.047a4.937,4.937,0,0,0,.9,0h2.468c2.077,0,4.951.09,8.111.331s6.02.594,8.081.9c1.031.15,1.859.293,2.43.384a4.876,4.876,0,0,0,.9.12,4.859,4.859,0,0,0-.873-.241c-.572-.135-1.4-.309-2.43-.489-2.054-.369-4.914-.752-8.089-1a79.273,79.273,0,0,0-8.141-.241c-1.046,0-1.881.083-2.468.135a4.432,4.432,0,0,0-.9.1Z" transform="translate(-54.186 -66.496)" fill="#fafafa"/>
      <path id="Path_88" data-name="Path 88" d="M106.12,143.272a3.074,3.074,0,0,0,.128-.286c.075-.188.173-.519.293-.858.248-.752.587-1.828.986-3.175.8-2.686,1.783-6.433,2.814-10.587s1.986-7.908,2.731-10.61c.361-1.317.662-2.4.888-3.2.09-.354.173-.64.233-.873s.075-.309.06-.316a1.394,1.394,0,0,0-.12.293c-.083.233-.181.512-.293.858-.256.752-.587,1.821-.986,3.168-.805,2.694-1.791,6.441-2.822,10.595s-1.986,7.908-2.724,10.61c-.369,1.317-.67,2.393-.888,3.2-.1.346-.173.64-.241.873a1.783,1.783,0,0,0-.06.309Z" transform="translate(-65.838 -65.153)" fill="#fafafa"/>
      <path id="Path_89" data-name="Path 89" d="M65.09,144.707a.955.955,0,0,0,.308.09l.9.2,3.3.685c2.792.572,6.637,1.415,10.888,2.348s8.111,1.746,10.918,2.257c1.4.256,2.536.459,3.326.579l.91.135a1.114,1.114,0,0,0,.316,0,1.924,1.924,0,0,0-.309-.09l-.9-.2-3.311-.677c-2.792-.579-6.637-1.422-10.888-2.355s-8.1-1.746-10.911-2.257c-1.407-.256-2.543-.459-3.326-.579l-.91-.135A1.713,1.713,0,0,0,65.09,144.707Z" transform="translate(-55.681 -72.909)" fill="#fafafa"/>
      <circle id="Ellipse_4" data-name="Ellipse 4" cx="93.718" cy="93.718" r="93.718" transform="translate(17.237 229.463) rotate(-45)" fill="#e0e0e0"/>
      <path id="Path_90" data-name="Path 90" d="M227.3,403.877a73.958,73.958,0,1,1,73.958-73.958A73.958,73.958,0,0,1,227.3,403.877Zm0-147.164a73.191,73.191,0,1,1,0,.03Z" transform="translate(-77.527 -100.451)" fill="#fafafa"/>
      <path id="Path_91" data-name="Path 91" d="M223.409,411.779A85.779,85.779,0,1,1,309.189,326a85.779,85.779,0,0,1-85.779,85.779Zm0-170.761a85.027,85.027,0,1,0,85.027,85.027A85.027,85.027,0,0,0,223.409,241.018Z" transform="translate(-73.638 -96.555)" fill="#fafafa"/>
      <path id="Path_92" data-name="Path 92" d="M230.534,397.278a64.124,64.124,0,1,1,64.124-64.124A64.124,64.124,0,0,1,230.534,397.278Zm0-127.5a63.383,63.383,0,1,0,0-.023Z" transform="translate(-80.763 -103.686)" fill="#fafafa"/>
      <path id="Path_93" data-name="Path 93" d="M233.839,390.537a54.079,54.079,0,1,1,54.079-54.079,54.079,54.079,0,0,1-54.079,54.079Zm0-107.4a53.326,53.326,0,1,0,53.326,53.326A53.326,53.326,0,0,0,233.839,283.132Z" transform="translate(-84.067 -106.991)" fill="#fafafa"/>
      <path id="Path_94" data-name="Path 94" d="M237.228,383.625a43.778,43.778,0,1,1,43.778-43.778A43.778,43.778,0,0,1,237.228,383.625Zm0-86.8a43.025,43.025,0,1,0,43.025,43.025A43.025,43.025,0,0,0,237.228,296.822Z" transform="translate(-87.456 -110.38)" fill="#fafafa"/>
      <path id="Path_95" data-name="Path 95" d="M240.277,377.4A34.507,34.507,0,1,1,274.785,342.9,34.507,34.507,0,0,1,240.277,377.4Zm0-68.262A33.755,33.755,0,1,0,274.032,342.9a33.755,33.755,0,0,0-33.755-33.755Z" transform="translate(-90.506 -113.43)" fill="#fafafa"/>
      <rect id="Rectangle_26" data-name="Rectangle 26" width="36.366" height="36.366" transform="translate(142.736 3.71)" fill="#ebebeb"/>
    </g>
    <g id="freepik--Desk--inject-2" transform="translate(45.351 133.384)">
      <rect id="Rectangle_27" data-name="Rectangle 27" width="82.029" height="90.093" transform="translate(108.199 116.517) rotate(-4.004)" fill="#263238"/>
      <path id="Path_96" data-name="Path 96" d="M276.274,358.011l-1.2-26.5L203.79,338.2l2.716,27.525Z" transform="translate(-88.642 -203.247)" fill="#455a64"/>
      <path id="Path_97" data-name="Path 97" d="M287.856,424.033,196.5,430.181a5.779,5.779,0,0,1-6.155-5.38h0a5.771,5.771,0,0,1,5.38-6.155l91.355-6.14a5.779,5.779,0,0,1,6.155,5.38h0A5.779,5.779,0,0,1,287.856,424.033Z" transform="translate(-85.311 -223.294)" fill="#455a64"/>
      <rect id="Rectangle_28" data-name="Rectangle 28" width="304.035" height="137.729" fill="#ebebeb"/>
      <path id="Path_98" data-name="Path 98" d="M50.76,344.09l7.856,4.093,288.655-.271,7.532-3.822Z" transform="translate(-50.76 -206.361)" fill="#e0e0e0"/>
    </g>
    <g id="freepik--Character--inject-2" transform="translate(127.285 165.371)">
      <path id="Path_99" data-name="Path 99" d="M160.192,296.307l-.542-92.747H302.172v93.71Z" transform="translate(-159.65 -203.56)" fill="#455a64"/>
      <path id="Path_100" data-name="Path 100" d="M191.013,283.346c5.515-.293,11.129,1.008,16.637,1.64l-2.957-.753a17.773,17.773,0,0,1,19.767-19.218c3.92.459,7.78,2.22,11.671,1.565,7.133-1.2,10.805-9.7,17.577-12.242,8.661-3.251,18.751,4.349,27.291.79,3.461-1.437,5.974-4.515,9.187-6.426,2.754-1.648,6.772-2.129,9.029-.226V228.523c-2.257,4.417-7.9,6.561-12.965,6.14-5.365-.444-10.256-3.138-14.921-5.816s-9.458-5.47-14.808-6.163c-7.6-.971-14.974,2.423-22.348,4.515-6.659,1.881-13.83,2.686-20.474.752l-.655-.226a11.286,11.286,0,0,1-2.776,1.971c-5.651,2.739-13.2-.933-18.36,2.649-3.1,2.145-4.176,6.163-6.449,9.165-4.191,5.538-14.3,7.141-20.09,3.258v51.761h3.01A29.346,29.346,0,0,1,191.013,283.346ZM278.3,242.473a3.009,3.009,0,0,1,1.159-.557l.158-.06h-.06a3.439,3.439,0,1,1-.926.429Z" transform="translate(-161.066 -208.252)" fill="#fafafa"/>
      <path id="Path_101" data-name="Path 101" d="M312.17,256.595c-2.317-1.9-6.306-1.422-9.029.226-3.213,1.934-5.726,4.989-9.187,6.426-8.54,3.559-18.631-4.041-27.291-.79C259.89,265,256.218,273.495,249.085,274.7c-3.89.655-7.75-1.106-11.671-1.565a17.773,17.773,0,0,0-19.767,19.21l2.957.752c4.3.5,8.533.587,12.611-.79,11.753-3.973,18.157-18.947,30.482-20.369,6.84-.79,13.665,3.01,20.444,1.859,5.508-.933,9.887-4.929,14.432-8.164s8.939-6.215,14.011-4.357v-4.357C312.434,256.82,312.306,256.7,312.17,256.595Z" transform="translate(-173.99 -216.384)"/>
      <path id="Path_102" data-name="Path 102" d="M286.629,267.39c-4.515,3.236-8.924,7.231-14.432,8.164-6.772,1.159-13.6-2.649-20.444-1.858-12.325,1.422-18.729,16.4-30.482,20.369-4.078,1.377-8.277,1.287-12.611.79-5.508-.632-11.121-1.934-16.637-1.64A29.345,29.345,0,0,0,169.45,306.4h3.01a22.4,22.4,0,0,1,10.828-6.08,21.957,21.957,0,0,1,17.683,3.409c1.151.828,2.257,1.776,3.333,2.709h22.438c.993-.564,1.986-1.121,3.01-1.633,4.063-2.062,8.706-3.5,13.168-2.551a11.475,11.475,0,0,1,6.87,4.206h24.018a6.614,6.614,0,0,1,3.883-3.416c1.813-.557,3.905-.346,5.448-1.437,1.806-1.264,2.144-3.762,2.882-5.816a13.392,13.392,0,0,1,14.628-8.375V263.063C295.568,261.2,291.1,264.237,286.629,267.39Zm-21.2,34.3a7.555,7.555,0,0,1-7.524-13.078l-.6.278a6.922,6.922,0,0,1,2.257-1.159,6.782,6.782,0,0,1,.752-.241l-.135.06a7.576,7.576,0,0,1,5.252,14.139Zm26.644-27.254a2.018,2.018,0,0,1-1.971-3.522l-.2.1a1.815,1.815,0,0,1,.707-.339l.1-.038h-.038a2.032,2.032,0,0,1,1.407,3.762Z" transform="translate(-162.076 -218.149)"/>
      <path id="Path_103" data-name="Path 103" d="M320.342,304.019c-.752,2.084-1.076,4.552-2.882,5.816-1.5,1.091-3.634.88-5.448,1.437a6.614,6.614,0,0,0-3.883,3.416h26.84V295.644A13.392,13.392,0,0,0,320.342,304.019Z" transform="translate(-196.406 -226.305)"/>
      <path id="Path_104" data-name="Path 104" d="M184.288,312.606a22.4,22.4,0,0,0-10.828,6.08l31.844.038c-1.091-.933-2.182-1.881-3.333-2.709A21.957,21.957,0,0,0,184.288,312.606Z" transform="translate(-163.069 -230.408)"/>
      <path id="Path_105" data-name="Path 105" d="M261.758,315.3c-4.462-.948-9.1.489-13.168,2.551-1.008.512-2,1.069-3.01,1.633h23.033A11.475,11.475,0,0,0,261.758,315.3Z" transform="translate(-180.922 -231.148)"/>
      <path id="Path_106" data-name="Path 106" d="M248.269,215.374c-4.011.294-8.277-.391-11.859,1.5-3.2,1.663-5.139,5.049-7.75,7.524.218.075.436.158.662.218,6.644,1.926,13.815,1.114,20.474-.753,7.374-2.077,14.74-5.478,22.348-4.515,5.342.685,10.143,3.476,14.808,6.163s9.549,5.365,14.921,5.809c5.056.421,10.677-1.723,12.957-6.14V208.7h-57.6C256.945,212.643,252.242,215.073,248.269,215.374Z" transform="translate(-176.733 -204.832)"/>
      <path id="Path_107" data-name="Path 107" d="M314.032,252.533a3.348,3.348,0,1,0,2.31-4.349h.06l-.158.06a3.01,3.01,0,0,0-1.159.557l.331-.158A3.5,3.5,0,0,0,314.032,252.533Z" transform="translate(-197.831 -214.579)"/>
      <path id="Path_108" data-name="Path 108" d="M288.137,295.741l.135-.06a6.79,6.79,0,0,0-.752.241,6.923,6.923,0,0,0-2.257,1.159l.6-.278a7.555,7.555,0,0,0,7.525,13.078,7.923,7.923,0,0,0,3.062-10.918A8.02,8.02,0,0,0,288.137,295.741Z" transform="translate(-190.055 -226.335)"/>
      <g id="Group_12" data-name="Group 12" transform="translate(92.42 69.227)" opacity="0.3">
        <path id="Path_109" data-name="Path 109" d="M288.137,295.741l.135-.06a6.79,6.79,0,0,0-.752.241,6.923,6.923,0,0,0-2.257,1.159l.6-.278a7.555,7.555,0,0,0,7.525,13.078,7.923,7.923,0,0,0,3.062-10.918A8.02,8.02,0,0,0,288.137,295.741Z" transform="translate(-282.476 -295.562)" fill="#fff"/>
      </g>
      <path id="Path_110" data-name="Path 110" d="M332.235,274.186a2.137,2.137,0,0,0-2.257-.865h.038l-.1.038a1.814,1.814,0,0,0-.707.339l.2-.1a2.024,2.024,0,1,0,2.791.6Z" transform="translate(-201.444 -220.815)"/>
      <path id="Path_111" data-name="Path 111" d="M185.414,238.071c2.257-3.01,3.348-7.02,6.449-9.165,5.162-3.582,12.709.09,18.36-2.649A11.286,11.286,0,0,0,213,224.286c2.611-2.445,4.515-5.831,7.743-7.525,3.567-1.859,7.856-1.166,11.866-1.467s8.593-2.7,8.879-6.674H165.06l.105,32.581.158.1C171.132,245.212,181.223,243.609,185.414,238.071Z" transform="translate(-160.989 -204.813)"/>
      <g id="Group_13" data-name="Group 13" transform="translate(43.589 38.979)" opacity="0.3">
        <path id="Path_112" data-name="Path 112" d="M312.17,256.595c-2.317-1.9-6.306-1.422-9.029.226-3.213,1.934-5.726,4.989-9.187,6.426-8.54,3.559-18.631-4.041-27.291-.79C259.89,265,256.218,273.495,249.085,274.7c-3.89.655-7.75-1.106-11.671-1.565a17.773,17.773,0,0,0-19.767,19.21l2.957.752c4.3.5,8.533.587,12.611-.79,11.753-3.973,18.157-18.947,30.482-20.369,6.84-.79,13.665,3.01,20.444,1.859,5.508-.933,9.887-4.929,14.432-8.164s8.939-6.215,14.011-4.357v-4.357C312.434,256.82,312.306,256.7,312.17,256.595Z" transform="translate(-217.579 -255.363)" fill="#fff"/>
      </g>
      <g id="Group_14" data-name="Group 14" transform="translate(4.071 3.807)" opacity="0.3">
        <path id="Path_113" data-name="Path 113" d="M220.1,208.65H165.06l.105,32.581.158.1c5.809,3.883,15.9,2.257,20.09-3.258,2.257-3.01,3.348-7.02,6.449-9.165,5.162-3.582,12.709.09,18.36-2.649A11.284,11.284,0,0,0,213,224.286c2.611-2.445,4.515-5.832,7.743-7.525,3.567-1.859,7.856-1.166,11.866-1.467s8.593-2.7,8.879-6.674" transform="translate(-165.06 -208.62)" fill="#fff"/>
      </g>
      <path id="Path_120" data-name="Path 120" d="M429.675,247.888a5.342,5.342,0,0,0,1.181-.918,6.019,6.019,0,0,0,1.46-3.95,6.771,6.771,0,0,0-.594-3.01,6.479,6.479,0,0,0-2.4-2.716,9.255,9.255,0,0,0-8.623-.436c-3.13,1.249-5.929,3.762-9.029,6.215a26.472,26.472,0,0,1-5.162,3.378,15.877,15.877,0,0,1-6.381,1.445,16.9,16.9,0,0,1-12.581-5.5,15.133,15.133,0,0,1-3.522-6.531,10.114,10.114,0,0,1,.865-7.525,8.277,8.277,0,0,1,2.679-2.822,6.261,6.261,0,0,1,3.695-1.068,5.448,5.448,0,0,1,3.439,1.58,7.383,7.383,0,0,1,1.828,3.251,9.346,9.346,0,0,1-.752,7.065,9.842,9.842,0,0,1-5.335,4.259,13.062,13.062,0,0,1-6.516.5,21.218,21.218,0,0,1-5.831-2.024c-3.567-1.791-6.546-4-9.458-5.7a24.342,24.342,0,0,0-8.352-3.356,12.6,12.6,0,0,0-6.7.677,9.9,9.9,0,0,0-3.567,2.37l-.436.489c-.113.143-.2.271-.286.369l-.241.3a3.322,3.322,0,0,1,.211-.324l.271-.384.429-.5a9.706,9.706,0,0,1,3.559-2.461,12.716,12.716,0,0,1,6.772-.752,24.491,24.491,0,0,1,8.5,3.333c2.927,1.686,5.922,3.883,9.458,5.651a21.218,21.218,0,0,0,5.741,1.971,12.792,12.792,0,0,0,6.343-.5,9.5,9.5,0,0,0,5.132-4.108,8.969,8.969,0,0,0,.715-6.772,7.147,7.147,0,0,0-1.73-3.085,5.072,5.072,0,0,0-3.19-1.46,5.87,5.87,0,0,0-3.461,1.008,8,8,0,0,0-2.551,2.686,9.781,9.781,0,0,0-.828,7.239,14.716,14.716,0,0,0,3.431,6.358,16.5,16.5,0,0,0,12.333,5.4,15.72,15.72,0,0,0,6.238-1.392,26.88,26.88,0,0,0,5.109-3.326c3.07-2.46,5.907-4.966,9.1-6.223a9.716,9.716,0,0,1,8.849.512,6.772,6.772,0,0,1,2.453,2.822,6.954,6.954,0,0,1,.572,3.1,6.02,6.02,0,0,1-1.557,4,2.826,2.826,0,0,1-.5.436,1.665,1.665,0,0,1-.4.256Z" transform="translate(-206.536 -208.73)" fill="#263238"/>
      <g id="Group_15" data-name="Group 15" transform="translate(111.724 69.137)" opacity="0.3">
        <path id="Path_121" data-name="Path 121" d="M320.342,304.019c-.752,2.084-1.076,4.552-2.882,5.816-1.5,1.091-3.634.88-5.448,1.437a6.614,6.614,0,0,0-3.883,3.416h26.84V295.644A13.392,13.392,0,0,0,320.342,304.019Z" transform="translate(-308.13 -295.443)"/>
      </g>
      <g id="Group_16" data-name="Group 16" transform="translate(127.038 52.447)" opacity="0.3">
        <path id="Path_122" data-name="Path 122" d="M332.235,274.186a2.137,2.137,0,0,0-2.257-.865h.038l-.1.038a1.814,1.814,0,0,0-.707.339l.2-.1a2.024,2.024,0,1,0,2.791.6Z" transform="translate(-328.483 -273.262)"/>
      </g>
      <g id="Group_17" data-name="Group 17" transform="translate(10.391 81.609)" opacity="0.3">
        <path id="Path_123" data-name="Path 123" d="M184.288,312.606a22.4,22.4,0,0,0-10.828,6.08l31.844.038c-1.091-.933-2.182-1.881-3.333-2.709A21.957,21.957,0,0,0,184.288,312.606Z" transform="translate(-173.46 -312.017)"/>
      </g>
      <g id="Group_18" data-name="Group 18" transform="translate(64.658 83.856)" opacity="0.3">
        <path id="Path_124" data-name="Path 124" d="M261.758,315.3c-4.462-.948-9.1.489-13.168,2.551-1.008.512-2,1.069-3.01,1.633h23.033A11.475,11.475,0,0,0,261.758,315.3Z" transform="translate(-245.58 -315.004)"/>
      </g>
    </g>
    <g id="freepik--Windows--inject-2" transform="translate(28.91 73.835)">
      <rect id="Rectangle_38" data-name="Rectangle 38" width="115.862" height="86.389" transform="translate(179.332 0.316)" fill="#fff"/>
      <path id="Path_156" data-name="Path 156" d="M383.043,168.615v-6.17c0-4.026,0-9.925-.045-17.457,0-15.049-.045-36.629-.083-62.762l.158.158H267.2l.2-.2v86.389l-.181-.173,83.62.083,23.762.053h.075l-23.725.045-83.733.09H267V81.91H383.254v.166c-.038,26.178-.068,47.788-.083,62.867,0,7.525-.038,13.4-.045,17.412v4.56A15.15,15.15,0,0,1,383.043,168.615Z" transform="translate(-87.849 -81.91)" fill="#263238"/>
      <rect id="Rectangle_39" data-name="Rectangle 39" width="70.452" height="27.389" transform="translate(239.076 51.317)" fill="#fafafa"/>
      <path id="Path_157" data-name="Path 157" d="M417.042,177.4v-1.919c0-1.249,0-3.085-.038-5.44,0-4.725-.038-11.55-.068-20.03l.135.135-70.452.06h0l.2-.2V177.4l-.188-.188,50.459.083,14.673.053h.09l-14.635.053-50.587.09h-.188V149.72h.2l70.452.06h.135v.135c-.038,8.51-.06,15.373-.075,20.113,0,2.348,0,4.161-.038,5.41v1.4A2.228,2.228,0,0,1,417.042,177.4Z" transform="translate(-107.514 -98.696)" fill="#263238"/>
      <rect id="Rectangle_40" data-name="Rectangle 40" width="70.452" height="5.869" transform="translate(239.076 51.317)" fill="#263238"/>
      <rect id="Rectangle_41" data-name="Rectangle 41" width="6.915" height="6.915" transform="translate(247.443 61.663)" fill="#263238"/>
      <rect id="Rectangle_42" data-name="Rectangle 42" width="6.915" height="6.915" transform="translate(251.634 65.847)" fill="#263238"/>
      <rect id="Rectangle_43" data-name="Rectangle 43" width="6.915" height="6.915" transform="translate(263.937 61.663)" fill="#263238"/>
      <rect id="Rectangle_44" data-name="Rectangle 44" width="6.915" height="6.915" transform="translate(268.128 65.847)" fill="#f5f5f5"/>
      <path id="Path_158" data-name="Path 158" d="M392.089,176.253a5.037,5.037,0,0,1-.038-.534c0-.391,0-.858-.045-1.422,0-1.219-.068-2.927-.083-4.966l.165.173h-6.915l.2-.2h0v6.907l-.165-.173c2.039,0,3.762.06,4.959.09l1.43.045a3.191,3.191,0,0,1,.527.038,1.863,1.863,0,0,1-.459,0l-1.385.045c-1.2,0-2.957.068-5.071.083h-.218v-7.081h0c-.173.173.241-.241.2-.2h7.088v.166c0,2.114-.053,3.868-.09,5.072,0,.549,0,1.008-.038,1.392A1.634,1.634,0,0,1,392.089,176.253Z" transform="translate(-117.046 -103.483)" fill="#263238"/>
      <rect id="Rectangle_45" data-name="Rectangle 45" width="6.915" height="6.915" transform="translate(279.325 61.663)" fill="#f5f5f5"/>
      <path id="Path_159" data-name="Path 159" d="M407,170.688a5.013,5.013,0,0,1-.038-.534q0-.572-.045-1.422c0-1.219-.068-2.927-.083-4.959l.166.166h-6.915c-.045,0,.369-.376.2-.2h0v6.892l-.173-.166c2.039,0,3.762.053,4.959.083l1.43.045a3.2,3.2,0,0,1,.527.038,1.87,1.87,0,0,1-.459,0l-1.385.045c-1.2,0-2.957.068-5.071.09h-.165v-7.065h0l.2-.2h7.088v.173c0,2.107-.053,3.86-.083,5.064,0,.549-.038,1.008-.045,1.392A1.634,1.634,0,0,1,407,170.688Z" transform="translate(-120.758 -102.11)" fill="#263238"/>
      <rect id="Rectangle_46" data-name="Rectangle 46" width="6.915" height="6.915" transform="translate(283.516 65.847)" fill="#f5f5f5"/>
      <path id="Path_160" data-name="Path 160" d="M412.554,176.253a5.029,5.029,0,0,1-.038-.534c0-.391,0-.858-.045-1.422,0-1.219-.068-2.927-.083-4.966l.166.173h-6.915l.2-.2h0v6.907l-.166-.173c2.039,0,3.762.06,4.959.09l1.43.045a3.191,3.191,0,0,1,.527.038,1.863,1.863,0,0,1-.459,0l-1.385.045c-1.211,0-2.957.068-5.071.083H405.5v-7.081h0c-.173.173.241-.241.2-.2h7.088v.166c0,2.114-.053,3.868-.09,5.072,0,.549,0,1.008-.038,1.392A1.633,1.633,0,0,1,412.554,176.253Z" transform="translate(-122.123 -103.483)" fill="#263238"/>
      <rect id="Rectangle_47" data-name="Rectangle 47" width="2.731" height="2.731" transform="translate(283.516 65.847)" fill="#263238"/>
      <rect id="Rectangle_48" data-name="Rectangle 48" width="6.915" height="6.915" transform="translate(293.471 61.663)" fill="#263238"/>
      <rect id="Rectangle_49" data-name="Rectangle 49" width="6.915" height="6.915" transform="translate(297.662 65.847)" fill="#263238"/>
      <rect id="Rectangle_50" data-name="Rectangle 50" width="2.731" height="2.731" transform="translate(297.662 65.847)" fill="#fafafa"/>
      <rect id="Rectangle_51" data-name="Rectangle 51" width="67.706" height="26.321" transform="translate(255.75 134.854)" fill="#fafafa"/>
      <path id="Path_161" data-name="Path 161" d="M436.574,287.516H368.68V261h67.894Zm-67.721-.188H436.37V261.2h-67.5Z" transform="translate(-113.02 -126.244)" fill="#222221"/>
      <rect id="Rectangle_52" data-name="Rectangle 52" width="67.706" height="5.643" transform="translate(255.75 134.854)" fill="#263238"/>
      <rect id="Rectangle_53" data-name="Rectangle 53" width="6.689" height="6.689" transform="translate(259.573 147.533)" fill="#f5f5f5"/>
      <path id="Path_162" data-name="Path 162" d="M380.535,284.607a2.508,2.508,0,0,1-.045-.512v-1.377c-.038-1.181-.075-2.829-.09-4.8l.173.173h-6.689c-.045.045.369-.369.2-.188h0v6.674l-.165-.166c1.964,0,3.619.053,4.793.083l1.377.045a4.917,4.917,0,0,1,.519.038,14.73,14.73,0,0,1-1.791.083c-1.166,0-2.859.075-4.9.09h-.173v-6.817h0l.2-.2h6.764v.2c0,2.047-.053,3.762-.083,4.906A15,15,0,0,1,380.535,284.607Z" transform="translate(-114.272 -130.385)" fill="#263238"/>
      <line id="Line_1" data-name="Line 1" x1="6.689" y2="6.689" transform="translate(259.573 147.533)" fill="#fafafa"/>
      <path id="Path_163" data-name="Path 163" d="M373.88,284.669a58.529,58.529,0,0,1,6.689-6.689,58.483,58.483,0,0,1-6.689,6.689Z" transform="translate(-114.307 -130.447)"/>
      <rect id="Rectangle_54" data-name="Rectangle 54" width="6.689" height="6.689" transform="translate(268.271 147.533)" fill="#263238"/>
      <rect id="Rectangle_55" data-name="Rectangle 55" width="6.689" height="6.689" transform="translate(276.977 147.533)" fill="#455a64"/>
      <rect id="Rectangle_56" data-name="Rectangle 56" width="6.689" height="6.689" transform="translate(285.683 147.533)"/>
      <rect id="Rectangle_57" data-name="Rectangle 57" width="6.689" height="6.689" transform="translate(294.389 147.533)"/>
      <g id="Group_24" data-name="Group 24" transform="translate(294.389 147.533)" opacity="0.5">
        <rect id="Rectangle_58" data-name="Rectangle 58" width="6.689" height="6.689" fill="#fff"/>
      </g>
      <rect id="Rectangle_59" data-name="Rectangle 59" width="6.689" height="6.689" transform="translate(303.095 147.533)"/>
      <g id="Group_25" data-name="Group 25" transform="translate(303.095 147.533)" opacity="0.3">
        <rect id="Rectangle_60" data-name="Rectangle 60" width="6.689" height="6.689"/>
      </g>
      <rect id="Rectangle_61" data-name="Rectangle 61" width="6.689" height="6.689" transform="translate(311.793 147.533)"/>
      <g id="Group_26" data-name="Group 26" transform="translate(311.793 147.533)" opacity="0.7">
        <rect id="Rectangle_62" data-name="Rectangle 62" width="6.689" height="6.689"/>
      </g>
      <rect id="Rectangle_63" data-name="Rectangle 63" width="94.673" height="65.93" transform="translate(56.539 0.316)" fill="#fff"/>
      <path id="Path_164" data-name="Path 164" d="M198.7,148.245V130.269c0-11.467-.053-27.931-.083-47.954l.158.158H104.108l.2-.2v65.93l-.173-.181,68.24.09,19.458.045h.075l-19.421.053-68.353.083h-.181V82.12h.2l94.666.038h.158v.158c-.181,20.03-.181,36.524-.181,48.014,0,5.719-.038,10.2-.045,13.243v3.461A10.89,10.89,0,0,1,198.7,148.245Z" transform="translate(-47.486 -81.962)" fill="#263238"/>
      <rect id="Rectangle_64" data-name="Rectangle 64" width="94.673" height="8.239" transform="translate(56.539 0.316)" fill="#263238"/>
      <path id="Path_165" data-name="Path 165" d="M110.227,87.771a.993.993,0,1,1-.993-1.031A1.016,1.016,0,0,1,110.227,87.771Z" transform="translate(-48.548 -83.106)" fill="#fff"/>
      <path id="Path_166" data-name="Path 166" d="M115.552,87.771a.986.986,0,1,1-.986-1.031A1.016,1.016,0,0,1,115.552,87.771Z" transform="translate(-49.87 -83.106)" fill="#fff"/>
      <path id="Path_167" data-name="Path 167" d="M120.872,87.771a.986.986,0,1,1-.986-1.031A1.008,1.008,0,0,1,120.872,87.771Z" transform="translate(-51.187 -83.106)" fill="#fff"/>
      <rect id="Rectangle_65" data-name="Rectangle 65" width="13.491" height="32.37" transform="translate(65.538 16.629)"/>
      <rect id="Rectangle_66" data-name="Rectangle 66" width="13.491" height="32.37" transform="translate(86.344 16.629)" fill="#ebebeb"/>
      <rect id="Rectangle_67" data-name="Rectangle 67" width="13.491" height="32.37" transform="translate(107.149 16.629)" fill="#fafafa"/>
      <rect id="Rectangle_68" data-name="Rectangle 68" width="13.491" height="32.37" transform="translate(127.954 16.877)" fill="#e0e0e0"/>
      <rect id="Rectangle_69" data-name="Rectangle 69" width="81.776" height="7.397" transform="translate(63.973 52.566)"/>
      <path id="Path_168" data-name="Path 168" d="M214.35,159.59l1.761,8.909,1.445-2.491,3.108,4.439,1.55-1-3.108-4.439,2.859-.414Z" transform="translate(-74.816 -101.14)" fill="#263238"/>
      <rect id="Rectangle_70" data-name="Rectangle 70" width="41.671" height="71.475" transform="translate(73.259 74.079)" fill="#fafafa"/>
      <path id="Path_169" data-name="Path 169" d="M167.879,251.746v-5.312c0-3.446,0-8.45-.053-14.771,0-12.626-.053-30.467-.09-51.392l.188.181H126.253l.2-.2c0,27.269,0,52.273-.045,71.483l-.15-.151,30.376.083,8.345.038H165l-8.315.038-30.467.083h-.158v-.15c0-19.2,0-44.206-.045-71.483V180h42.054v.181c0,20.971-.068,38.856-.09,51.513,0,6.3-.038,11.287-.053,14.725v4.906A1.59,1.59,0,0,1,167.879,251.746Z" transform="translate(-52.95 -106.192)" fill="#222221"/>
      <rect id="Rectangle_71" data-name="Rectangle 71" width="41.671" height="6.02" transform="translate(73.259 74.079)" fill="#263238"/>
      <path id="Path_170" data-name="Path 170" d="M139.57,198.35l.5,6.674,1.866-2.43,3.115-.128Z" transform="translate(-56.304 -110.735)" fill="#263238"/>
      <path id="Path_171" data-name="Path 171" d="M163.51,198.343l.391.278,1.144.813c.978.707,2.393,1.723,4.018,2.935l.248.188H169l-3.01.128h-.113l.09-.053-1.866,2.43-.181.233V205c-.143-1.971-.233-3.672-.3-4.846,0-.527-.053-.978-.075-1.369a4.349,4.349,0,0,1,0-.467,3.726,3.726,0,0,0,.053.527c.053.331.083.865.135,1.4.113,1.189.278,2.829.429,4.74l-.2-.06c.579-.752,1.211-1.58,1.859-2.438h.2l3.01-.12-.06.2c-1.565-1.181-2.9-2.22-3.86-2.972l-1.136-.888C163.668,198.478,163.517,198.358,163.51,198.343Z" transform="translate(-62.23 -110.727)" fill="#263238"/>
      <path id="Path_172" data-name="Path 172" d="M138,233.744c-.045-.045,2.032-2.257,4.635-4.936s4.763-4.823,4.808-4.778-2.032,2.257-4.635,4.944S138,233.789,138,233.744Z" transform="translate(-55.915 -117.091)" fill="#263238"/>
      <path id="Path_173" data-name="Path 173" d="M172.4,228.3a11.139,11.139,0,0,0-.226-1.5A6.208,6.208,0,0,0,170,223.438a5.839,5.839,0,0,0-8.427,1.272,6.215,6.215,0,0,0,0,7.141,5.884,5.884,0,0,0,5.907,2.438A5.952,5.952,0,0,0,170,233.129a6.222,6.222,0,0,0,2.175-3.363,11.345,11.345,0,0,0,.226-1.5,5.05,5.05,0,0,1-.135,1.5,6.23,6.23,0,0,1-2.16,3.469,5.944,5.944,0,0,1-5.862.948,6.057,6.057,0,0,1-2.859-2.257,6.433,6.433,0,0,1,0-7.412,6.11,6.11,0,0,1,2.859-2.22,6.02,6.02,0,0,1,3.273-.271,6.169,6.169,0,0,1,2.588,1.219,6.253,6.253,0,0,1,2.16,3.469A5.093,5.093,0,0,1,172.4,228.3Z" transform="translate(-61.413 -116.567)" fill="#263238"/>
      <path id="Path_174" data-name="Path 174" d="M166.831,251.493l.15.105c.12.113.263.226.429.361l1.64,1.407.053.053-.045.053-7,8.044h-.038l-.843.128-1.5.226h-.166V261.7c.2-.956.376-1.881.549-2.762h0c1.9-2.257,3.552-4.138,4.756-5.463a12.332,12.332,0,0,1,2.009-2.009l-.143.135c-.083.09-.218.218-.376.4-.331.361-.8.9-1.385,1.573-1.174,1.347-2.807,3.266-4.688,5.508v-.053c-.166.88-.346,1.806-.534,2.762l-.135-.135,1.5-.233.843-.128-.075.038,7.073-7.983v.1l-1.5-1.415-.414-.391Z" transform="translate(-61.24 -123.884)" fill="#263238"/>
      <path id="Path_175" data-name="Path 175" d="M145.744,261.058v-2.8c0-1.806,0-4.3-.045-7.254l.1.105h-9.782s.218-.226.113-.113h0v10l-.1-.1,7.05.053h.015l-7.118.053h-.105V250.87h0c-.105.1.143-.151.12-.12h9.887v.1c0,3.01-.045,5.493-.053,7.321v2.558A2.035,2.035,0,0,0,145.744,261.058Z" transform="translate(-55.382 -123.705)" fill="#263238"/>
      <path id="Path_176" data-name="Path 176" d="M136.606,251.049a18.7,18.7,0,0,1-4.236,0,19.923,19.923,0,0,1,4.236,0Z" transform="translate(-54.521 -123.749)" fill="#263238"/>
      <path id="Path_177" data-name="Path 177" d="M135.96,252.091a23.682,23.682,0,0,1,0-4.771A25.262,25.262,0,0,1,135.96,252.091Z" transform="translate(-55.38 -122.857)" fill="#263238"/>
      <rect id="Rectangle_72" data-name="Rectangle 72" width="55.177" height="55.177" transform="translate(8.811 95.373)" fill="#f5f5f5"/>
      <circle id="Ellipse_5" data-name="Ellipse 5" cx="10.339" cy="10.339" r="10.339" transform="translate(62.173 172.257) rotate(-45)" fill="#e0e0e0"/>
      <circle id="Ellipse_6" data-name="Ellipse 6" cx="9.044" cy="9.044" r="9.044" transform="translate(65.018 168.121) rotate(-45)" fill="#fafafa"/>
      <circle id="Ellipse_7" data-name="Ellipse 7" cx="8.713" cy="8.713" r="8.713" transform="translate(69.09 159.407)"/>
      <path id="Path_178" data-name="Path 178" d="M130.114,309.818a6.674,6.674,0,1,1,6.674-6.674A6.674,6.674,0,0,1,130.114,309.818Zm0-13.311a6.637,6.637,0,1,0,6.637,6.637A6.637,6.637,0,0,0,130.114,296.508Z" transform="translate(-52.311 -135.024)" fill="#263238"/>
      <g id="Group_27" data-name="Group 27" transform="translate(73.205 161.911)" opacity="0.2">
        <path id="Path_179" data-name="Path 179" d="M131.5,297.2a4.319,4.319,0,1,0,3.311,4.635,3.943,3.943,0,0,0-.609-2.551,4.034,4.034,0,0,0-2.7-2.084" transform="translate(-126.199 -297.088)"/>
      </g>
      <path id="Path_180" data-name="Path 180" d="M130.14,312.82l.5.677,2.656-.083.512-.594Z" transform="translate(-53.969 -139.072)" fill="#263238"/>
      <circle id="Ellipse_8" data-name="Ellipse 8" cx="5.523" cy="5.523" r="5.523" transform="translate(248.662 167.947)" fill="#263238"/>
      <path id="Path_181" data-name="Path 181" d="M368.073,311.786a2.017,2.017,0,1,1-2.016-2.017A2.017,2.017,0,0,1,368.073,311.786Z" transform="translate(-111.871 -138.317)" fill="#455a64"/>
      <path id="Path_182" data-name="Path 182" d="M98,292.281c0-.1.482-.181,1.076-.181s1.068.083,1.068.181-.482.188-1.068.188S98,292.386,98,292.281Z" transform="translate(-46.013 -133.942)" fill="#263238"/>
      <path id="Path_183" data-name="Path 183" d="M92.34,292.281c0-.1.482-.181,1.068-.181s1.068.083,1.068.181-.474.188-1.068.188S92.34,292.386,92.34,292.281Z" transform="translate(-44.612 -133.942)" fill="#263238"/>
      <path id="Path_184" data-name="Path 184" d="M86.66,292.281c0-.1.482-.181,1.068-.181s1.068.083,1.068.181-.474.188-1.068.188S86.66,292.386,86.66,292.281Z" transform="translate(-43.206 -133.942)" fill="#263238"/>
      <path id="Path_185" data-name="Path 185" d="M81,292.281c0-.1.482-.181,1.068-.181s1.069.083,1.069.181-.482.188-1.069.188S81,292.386,81,292.281Z" transform="translate(-41.805 -133.942)" fill="#263238"/>
      <path id="Path_186" data-name="Path 186" d="M75.3,292.281c0-.1.474-.181,1.068-.181s1.068.083,1.068.181-.482.188-1.068.188S75.3,292.386,75.3,292.281Z" transform="translate(-40.394 -133.942)" fill="#263238"/>
      <path id="Path_187" data-name="Path 187" d="M69.62,292.281c0-.1.474-.181,1.068-.181s1.068.083,1.068.181-.482.188-1.068.188S69.62,292.386,69.62,292.281Z" transform="translate(-38.988 -133.942)" fill="#263238"/>
      <path id="Path_188" data-name="Path 188" d="M63.93,292.281c0-.1.482-.181,1.068-.181s1.076.083,1.076.181-.482.188-1.076.188S63.93,292.386,63.93,292.281Z" transform="translate(-37.579 -133.942)" fill="#263238"/>
      <path id="Path_189" data-name="Path 189" d="M58.25,292.281c0-.1.482-.181,1.068-.181s1.068.083,1.068.181-.474.188-1.068.188S58.25,292.386,58.25,292.281Z" transform="translate(-36.173 -133.942)" fill="#263238"/>
      <path id="Path_190" data-name="Path 190" d="M52.57,292.281c0-.1.482-.181,1.068-.181s1.068.083,1.068.181-.474.188-1.068.188S52.57,292.386,52.57,292.281Z" transform="translate(-34.767 -133.942)" fill="#263238"/>
      <path id="Path_191" data-name="Path 191" d="M46.89,292.281c0-.1.482-.181,1.068-.181s1.068.083,1.068.181-.482.188-1.068.188S46.89,292.386,46.89,292.281Z" transform="translate(-33.361 -133.942)" fill="#263238"/>
      <path id="Path_192" data-name="Path 192" d="M41.21,292.281c0-.1.474-.181,1.068-.181s1.068.083,1.068.181-.482.188-1.068.188S41.21,292.386,41.21,292.281Z" transform="translate(-31.955 -133.942)" fill="#263238"/>
      <path id="Path_193" data-name="Path 193" d="M35.53,292.281c0-.1.474-.181,1.068-.181s1.068.083,1.068.181-.482.188-1.068.188S35.53,292.386,35.53,292.281Z" transform="translate(-30.549 -133.942)" fill="#263238"/>
      <path id="Path_194" data-name="Path 194" d="M31.42,290.71c.1,0,.181.482.181,1.068v.158l-.181-.181c.512,0,.9.09.9.181s-.391.173-.9.188H31.24v-.346C31.232,291.192,31.315,290.71,31.42,290.71Z" transform="translate(-29.487 -133.598)" fill="#263238"/>
      <path id="Path_195" data-name="Path 195" d="M31.418,285c.1,0,.181.482.181,1.068s-.083,1.069-.181,1.069-.188-.482-.188-1.069S31.313,285,31.418,285Z" transform="translate(-29.484 -132.185)" fill="#263238"/>
      <path id="Path_196" data-name="Path 196" d="M31.418,279.35c.1,0,.181.474.181,1.068s-.083,1.069-.181,1.069-.188-.482-.188-1.069S31.313,279.35,31.418,279.35Z" transform="translate(-29.484 -130.786)" fill="#263238"/>
      <path id="Path_197" data-name="Path 197" d="M31.418,273.67c.1,0,.181.474.181,1.068s-.083,1.069-.181,1.069-.188-.482-.188-1.069S31.313,273.67,31.418,273.67Z" transform="translate(-29.484 -129.38)" fill="#263238"/>
      <path id="Path_198" data-name="Path 198" d="M31.418,268c.1,0,.181.482.181,1.068s-.083,1.076-.181,1.076-.188-.482-.188-1.076S31.313,268,31.418,268Z" transform="translate(-29.484 -127.976)" fill="#263238"/>
      <path id="Path_199" data-name="Path 199" d="M31.418,262.3c.1,0,.181.482.181,1.068s-.083,1.069-.181,1.069-.188-.474-.188-1.069S31.313,262.3,31.418,262.3Z" transform="translate(-29.484 -126.565)" fill="#263238"/>
      <path id="Path_200" data-name="Path 200" d="M31.418,256.62c.1,0,.181.482.181,1.068s-.083,1.069-.181,1.069-.188-.474-.188-1.069S31.313,256.62,31.418,256.62Z" transform="translate(-29.484 -125.159)" fill="#263238"/>
      <path id="Path_201" data-name="Path 201" d="M31.418,250.94c.1,0,.181.482.181,1.069s-.083,1.068-.181,1.068-.188-.482-.188-1.068S31.313,250.94,31.418,250.94Z" transform="translate(-29.484 -123.753)" fill="#263238"/>
      <path id="Path_202" data-name="Path 202" d="M31.418,245.26c.1,0,.181.474.181,1.068s-.083,1.068-.181,1.068-.188-.482-.188-1.068S31.313,245.26,31.418,245.26Z" transform="translate(-29.484 -122.347)" fill="#263238"/>
      <path id="Path_203" data-name="Path 203" d="M31.418,239.58c.1,0,.181.474.181,1.068s-.083,1.068-.181,1.068-.188-.482-.188-1.068S31.313,239.58,31.418,239.58Z" transform="translate(-29.484 -120.941)" fill="#263238"/>
      <path id="Path_204" data-name="Path 204" d="M31.418,233.89c.1,0,.181.482.181,1.068s-.083,1.069-.181,1.069-.188-.474-.188-1.069S31.313,233.89,31.418,233.89Z" transform="translate(-29.484 -119.533)" fill="#263238"/>
      <path id="Path_205" data-name="Path 205" d="M31.418,228.21c.1,0,.181.482.181,1.068s-.083,1.069-.181,1.069-.188-.474-.188-1.069S31.313,228.21,31.418,228.21Z" transform="translate(-29.484 -118.126)" fill="#263238"/>
      <path id="Path_206" data-name="Path 206" d="M31.734,222.95c0,.045-.12.1-.316.128l.128-.128a4.1,4.1,0,0,1,.053.752c0,.594-.083,1.068-.181,1.068s-.188-.474-.188-1.068a4.92,4.92,0,0,1,.053-.752v-.15h.105C31.614,222.823,31.734,222.868,31.734,222.95Z" transform="translate(-29.484 -116.787)" fill="#263238"/>
      <path id="Path_207" data-name="Path 207" d="M36.877,222.938c0,.1-.474.181-1.068.181s-1.068-.083-1.068-.181.482-.188,1.068-.188S36.877,222.8,36.877,222.938Z" transform="translate(-30.353 -116.775)" fill="#263238"/>
      <path id="Path_208" data-name="Path 208" d="M42.567,222.938c0,.1-.482.181-1.068.181s-1.068-.083-1.068-.181.474-.188,1.068-.188S42.567,222.8,42.567,222.938Z" transform="translate(-31.762 -116.775)" fill="#263238"/>
      <path id="Path_209" data-name="Path 209" d="M48.3,222.938c0,.1-.482.181-1.068.181s-1.068-.083-1.068-.181.474-.188,1.068-.188S48.3,222.8,48.3,222.938Z" transform="translate(-33.18 -116.775)" fill="#263238"/>
      <path id="Path_210" data-name="Path 210" d="M53.927,222.938c0,.1-.482.181-1.068.181s-1.068-.083-1.068-.181.474-.188,1.068-.188S53.927,222.8,53.927,222.938Z" transform="translate(-34.574 -116.775)" fill="#263238"/>
      <path id="Path_211" data-name="Path 211" d="M59.607,222.938c0,.1-.474.181-1.068.181s-1.068-.083-1.068-.181.482-.188,1.068-.188S59.607,222.8,59.607,222.938Z" transform="translate(-35.98 -116.775)" fill="#263238"/>
      <path id="Path_212" data-name="Path 212" d="M65.3,222.938c0,.1-.474.181-1.068.181s-1.068-.083-1.068-.181.482-.188,1.068-.188S65.3,222.8,65.3,222.938Z" transform="translate(-37.389 -116.775)" fill="#263238"/>
      <path id="Path_213" data-name="Path 213" d="M70.967,222.938c0,.1-.474.181-1.068.181s-1.068-.083-1.068-.181.482-.188,1.068-.188S70.967,222.8,70.967,222.938Z" transform="translate(-38.792 -116.775)" fill="#263238"/>
      <path id="Path_214" data-name="Path 214" d="M76.657,222.938c0,.1-.482.181-1.069.181s-1.068-.083-1.068-.181.474-.188,1.068-.188S76.657,222.8,76.657,222.938Z" transform="translate(-40.201 -116.775)" fill="#263238"/>
      <path id="Path_215" data-name="Path 215" d="M82.3,222.938c0,.1-.482.181-1.069.181s-1.068-.083-1.068-.181.474-.188,1.068-.188S82.3,222.8,82.3,222.938Z" transform="translate(-41.597 -116.775)" fill="#263238"/>
      <path id="Path_216" data-name="Path 216" d="M88.017,222.938c0,.1-.482.181-1.068.181s-1.068-.083-1.068-.181.474-.188,1.068-.188S88.017,222.8,88.017,222.938Z" transform="translate(-43.013 -116.775)" fill="#263238"/>
      <path id="Path_217" data-name="Path 217" d="M93.7,222.938c0,.1-.474.181-1.068.181s-1.068-.083-1.068-.181.482-.188,1.068-.188S93.7,222.8,93.7,222.938Z" transform="translate(-44.419 -116.775)" fill="#263238"/>
      <path id="Path_218" data-name="Path 218" d="M99.377,222.938c0,.1-.474.181-1.068.181s-1.068-.083-1.068-.181.482-.188,1.068-.188S99.377,222.8,99.377,222.938Z" transform="translate(-45.825 -116.775)" fill="#263238"/>
      <path id="Path_219" data-name="Path 219" d="M100.808,227.154c-.105,0-.188-.482-.188-1.069s.083-1.076.188-1.076.181.482.181,1.076S100.906,227.154,100.808,227.154Z" transform="translate(-46.662 -117.334)" fill="#263238"/>
      <path id="Path_220" data-name="Path 220" d="M100.808,232.837c-.105,0-.188-.481-.188-1.068s.083-1.068.188-1.068.181.474.181,1.068S100.906,232.837,100.808,232.837Z" transform="translate(-46.662 -118.743)" fill="#263238"/>
      <path id="Path_221" data-name="Path 221" d="M100.808,238.517c-.105,0-.188-.482-.188-1.068s.083-1.068.188-1.068.181.474.181,1.068S100.906,238.517,100.808,238.517Z" transform="translate(-46.662 -120.149)" fill="#263238"/>
      <path id="Path_222" data-name="Path 222" d="M100.808,244.2c-.105,0-.188-.482-.188-1.068s.083-1.068.188-1.068.181.482.181,1.068S100.906,244.2,100.808,244.2Z" transform="translate(-46.662 -121.555)" fill="#263238"/>
      <path id="Path_223" data-name="Path 223" d="M100.808,249.877c-.105,0-.188-.474-.188-1.069s.083-1.068.188-1.068.181.482.181,1.068S100.906,249.877,100.808,249.877Z" transform="translate(-46.662 -122.961)" fill="#263238"/>
      <path id="Path_224" data-name="Path 224" d="M100.808,255.557c-.105,0-.188-.474-.188-1.068s.083-1.068.188-1.068.181.482.181,1.068S100.906,255.557,100.808,255.557Z" transform="translate(-46.662 -124.367)" fill="#263238"/>
      <path id="Path_225" data-name="Path 225" d="M100.808,261.3c-.105,0-.188-.482-.188-1.068s.083-1.069.188-1.069.181.474.181,1.069S100.906,261.3,100.808,261.3Z" transform="translate(-46.662 -125.788)" fill="#263238"/>
      <path id="Path_226" data-name="Path 226" d="M100.808,266.927c-.105,0-.188-.482-.188-1.068s.083-1.069.188-1.069.181.474.181,1.069S100.906,266.927,100.808,266.927Z" transform="translate(-46.662 -127.182)" fill="#263238"/>
      <path id="Path_227" data-name="Path 227" d="M100.808,272.607c-.105,0-.188-.482-.188-1.068s.083-1.069.188-1.069.181.474.181,1.069S100.906,272.607,100.808,272.607Z" transform="translate(-46.662 -128.588)" fill="#263238"/>
      <path id="Path_228" data-name="Path 228" d="M100.808,278.3c-.105,0-.188-.474-.188-1.068s.083-1.069.188-1.069.181.482.181,1.069S100.906,278.3,100.808,278.3Z" transform="translate(-46.662 -129.996)" fill="#263238"/>
      <path id="Path_229" data-name="Path 229" d="M100.808,283.967c-.105,0-.188-.474-.188-1.068s.083-1.069.188-1.069.181.482.181,1.069S100.906,283.967,100.808,283.967Z" transform="translate(-46.662 -131.4)" fill="#263238"/>
      <path id="Path_230" data-name="Path 230" d="M100.808,289.647c-.105,0-.188-.474-.188-1.069s.083-1.068.188-1.068.181.482.181,1.068S100.906,289.647,100.808,289.647Z" transform="translate(-46.662 -132.806)" fill="#263238"/>
      <rect id="Rectangle_73" data-name="Rectangle 73" width="3.868" height="3.868" transform="translate(52.213 155.878)" fill="#263238"/>
      <rect id="Rectangle_74" data-name="Rectangle 74" width="3.868" height="3.868" transform="translate(0 156.412)" fill="#263238"/>
      <rect id="Rectangle_75" data-name="Rectangle 75" width="3.868" height="3.868" transform="translate(52.213 103.823)" fill="#263238"/>
      <rect id="Rectangle_76" data-name="Rectangle 76" width="3.868" height="3.868" transform="translate(0 104.199)" fill="#263238"/>
    </g>
  </g>
</svg>
